%TF.GenerationSoftware,KiCad,Pcbnew,10.0.6*%
%TF.CreationDate,2026-09-19T19:58:38+05:30*%
%TF.ProjectId,NE_555,4e455f35-3535-42e6-9b69-6361645f7063,rev?*%
%TF.SameCoordinates,Original*%
%TF.FileFunction,Legend,Top*%
%TF.FilePolarity,Positive*%
%FSLAX46Y46*%
G04 Gerber Fmt 4.6, Leading zero omitted, Abs format (unit mm)*
G04 Created by KiCad (PCBNEW 10.0.6) date 2026-09-19 19:58:38*
%MOMM*%
%LPD*%
G01*
G04 APERTURE LIST*
%ADD10C,0.100000*%
%ADD11C,0.150000*%
%ADD12C,0.120000*%
G04 APERTURE END LIST*
D10*
G36*
X117281488Y-82335554D02*
G01*
X117610055Y-82335554D01*
X117806121Y-82981516D01*
X117808869Y-82981516D01*
X118006278Y-82335554D01*
X118326664Y-82335554D01*
X118326664Y-82370725D01*
X118190682Y-82370725D01*
X118190682Y-83214829D01*
X118326664Y-83214829D01*
X118326664Y-83250000D01*
X117895575Y-83250000D01*
X117895575Y-83214829D01*
X118035648Y-83214829D01*
X118035648Y-82354849D01*
X118032901Y-82354849D01*
X117760326Y-83250000D01*
X117728941Y-83250000D01*
X117456366Y-82354849D01*
X117453618Y-82354849D01*
X117453618Y-83214829D01*
X117593691Y-83214829D01*
X117593691Y-83250000D01*
X117281488Y-83250000D01*
X117281488Y-83214829D01*
X117418813Y-83214829D01*
X117418813Y-82370725D01*
X117281488Y-82370725D01*
X117281488Y-82335554D01*
G37*
G36*
X118811718Y-82705866D02*
G01*
X118854897Y-82713509D01*
X118884209Y-82724267D01*
X118919691Y-82749424D01*
X118936477Y-82777206D01*
X118943521Y-82812148D01*
X118946369Y-82866660D01*
X118946369Y-83119879D01*
X118948995Y-83170365D01*
X118954185Y-83189366D01*
X118964138Y-83199636D01*
X118978487Y-83203105D01*
X118993066Y-83199616D01*
X119008700Y-83187837D01*
X119026297Y-83164026D01*
X119042723Y-83164026D01*
X119027932Y-83210192D01*
X119004379Y-83240599D01*
X118971666Y-83258973D01*
X118926585Y-83265631D01*
X118883917Y-83258786D01*
X118852156Y-83239535D01*
X118828548Y-83206815D01*
X118813196Y-83155966D01*
X118768848Y-83206451D01*
X118723464Y-83239929D01*
X118676304Y-83259219D01*
X118626045Y-83265631D01*
X118580129Y-83260967D01*
X118542937Y-83247903D01*
X118512594Y-83226980D01*
X118488896Y-83198971D01*
X118475007Y-83167777D01*
X118470279Y-83132213D01*
X118473458Y-83108278D01*
X118606200Y-83108278D01*
X118612679Y-83149486D01*
X118630441Y-83178253D01*
X118656841Y-83197050D01*
X118686128Y-83203105D01*
X118724278Y-83196530D01*
X118758852Y-83176543D01*
X118786983Y-83148615D01*
X118802266Y-83123115D01*
X118810102Y-83093500D01*
X118813196Y-83049110D01*
X118813196Y-82976448D01*
X118728181Y-82984288D01*
X118676052Y-82997625D01*
X118646500Y-83013817D01*
X118624536Y-83038140D01*
X118611031Y-83068950D01*
X118606200Y-83108278D01*
X118473458Y-83108278D01*
X118475844Y-83090314D01*
X118492080Y-83054259D01*
X118519706Y-83022492D01*
X118561186Y-82994418D01*
X118620426Y-82970482D01*
X118702451Y-82952059D01*
X118813196Y-82941277D01*
X118813196Y-82873316D01*
X118808679Y-82797291D01*
X118799152Y-82764078D01*
X118786981Y-82751136D01*
X118763817Y-82741883D01*
X118723681Y-82738066D01*
X118664596Y-82742206D01*
X118632680Y-82751827D01*
X118617599Y-82764169D01*
X118613039Y-82779160D01*
X118615136Y-82791047D01*
X118622259Y-82805294D01*
X118629100Y-82820509D01*
X118631479Y-82838756D01*
X118626677Y-82863116D01*
X118613039Y-82880155D01*
X118593389Y-82890826D01*
X118571334Y-82894382D01*
X118544126Y-82889462D01*
X118524867Y-82875636D01*
X118512608Y-82855310D01*
X118508503Y-82831673D01*
X118514973Y-82798724D01*
X118535030Y-82768618D01*
X118572372Y-82740020D01*
X118616609Y-82720631D01*
X118674741Y-82707699D01*
X118750303Y-82702896D01*
X118811718Y-82705866D01*
G37*
G36*
X119701873Y-83214829D02*
G01*
X119794136Y-83214829D01*
X119794136Y-83250000D01*
X119717627Y-83250000D01*
X119644291Y-83251985D01*
X119564609Y-83258182D01*
X119564609Y-83145830D01*
X119561861Y-83145830D01*
X119536072Y-83190786D01*
X119506191Y-83223784D01*
X119472043Y-83246782D01*
X119432780Y-83260765D01*
X119386983Y-83265631D01*
X119341071Y-83260509D01*
X119298078Y-83245220D01*
X119256995Y-83219115D01*
X119217173Y-83180573D01*
X119184630Y-83135910D01*
X119161934Y-83089328D01*
X119148365Y-83040210D01*
X119145796Y-83010825D01*
X119296125Y-83010825D01*
X119299973Y-83109569D01*
X119308957Y-83165167D01*
X119320000Y-83192847D01*
X119338715Y-83213364D01*
X119363750Y-83225921D01*
X119397241Y-83230460D01*
X119434050Y-83226136D01*
X119467437Y-83213363D01*
X119498358Y-83191687D01*
X119535005Y-83149493D01*
X119555694Y-83103271D01*
X119565276Y-83046331D01*
X119569371Y-82945551D01*
X119563859Y-82878213D01*
X119548982Y-82827065D01*
X119526324Y-82788503D01*
X119494292Y-82758466D01*
X119455614Y-82740463D01*
X119408171Y-82734159D01*
X119371990Y-82738155D01*
X119345900Y-82748878D01*
X119327300Y-82765544D01*
X119314870Y-82788930D01*
X119302134Y-82857562D01*
X119296125Y-83010825D01*
X119145796Y-83010825D01*
X119143778Y-82987744D01*
X119148687Y-82931566D01*
X119163116Y-82879764D01*
X119187104Y-82831394D01*
X119221325Y-82785755D01*
X119263133Y-82746795D01*
X119306995Y-82720111D01*
X119353618Y-82704320D01*
X119404080Y-82698988D01*
X119454611Y-82705410D01*
X119496584Y-82723824D01*
X119532046Y-82754509D01*
X119561861Y-82799738D01*
X119564609Y-82799738D01*
X119564609Y-82370725D01*
X119440289Y-82370725D01*
X119440289Y-82335554D01*
X119564609Y-82335554D01*
X119633257Y-82331662D01*
X119701873Y-82319923D01*
X119701873Y-83214829D01*
G37*
G36*
X120203619Y-82706239D02*
G01*
X120256463Y-82727699D01*
X120305336Y-82764323D01*
X120334919Y-82799000D01*
X120357089Y-82839880D01*
X120371909Y-82888100D01*
X120378792Y-82945184D01*
X120033128Y-82945184D01*
X120034578Y-83079385D01*
X120043625Y-83151704D01*
X120055659Y-83185336D01*
X120077506Y-83209548D01*
X120108907Y-83224795D01*
X120153356Y-83230460D01*
X120207339Y-83223949D01*
X120252411Y-83205306D01*
X120290661Y-83174417D01*
X120323080Y-83129293D01*
X120349422Y-83066329D01*
X120378792Y-83066329D01*
X120358039Y-83131316D01*
X120329428Y-83180530D01*
X120293429Y-83217027D01*
X120249550Y-83244216D01*
X120203215Y-83260238D01*
X120153356Y-83265631D01*
X120100087Y-83260555D01*
X120051082Y-83245610D01*
X120005329Y-83220625D01*
X119962114Y-83184665D01*
X119926652Y-83141690D01*
X119901511Y-83094102D01*
X119886153Y-83040963D01*
X119880842Y-82980966D01*
X119886001Y-82922668D01*
X119900977Y-82870535D01*
X119923168Y-82828009D01*
X120033128Y-82828009D01*
X120033128Y-82910013D01*
X120231941Y-82910013D01*
X120237437Y-82839122D01*
X120232876Y-82798918D01*
X120220739Y-82770637D01*
X120201935Y-82751077D01*
X120175394Y-82738733D01*
X120138335Y-82734159D01*
X120093142Y-82740921D01*
X120061154Y-82759438D01*
X120045805Y-82777897D01*
X120036437Y-82800354D01*
X120033128Y-82828009D01*
X119923168Y-82828009D01*
X119925587Y-82823373D01*
X119960404Y-82780321D01*
X120002868Y-82743975D01*
X120047315Y-82718911D01*
X120094426Y-82704019D01*
X120145174Y-82698988D01*
X120203619Y-82706239D01*
G37*
G36*
X121382568Y-82337716D02*
G01*
X121438867Y-82343431D01*
X121490558Y-82357247D01*
X121541327Y-82383975D01*
X121584117Y-82421130D01*
X121612035Y-82464820D01*
X121628474Y-82512774D01*
X121633590Y-82555861D01*
X121627458Y-82604086D01*
X121609557Y-82645995D01*
X121579240Y-82683236D01*
X121534117Y-82716543D01*
X121470332Y-82745641D01*
X121382875Y-82769330D01*
X121382875Y-82772749D01*
X121481226Y-82795621D01*
X121552957Y-82825877D01*
X121603818Y-82861924D01*
X121638176Y-82903373D01*
X121658635Y-82951132D01*
X121665708Y-83007283D01*
X121659724Y-83053594D01*
X121640429Y-83105102D01*
X121620779Y-83137151D01*
X121594216Y-83166757D01*
X121559829Y-83194129D01*
X121502964Y-83224936D01*
X121446744Y-83240840D01*
X121385353Y-83247466D01*
X121301603Y-83250000D01*
X120834305Y-83250000D01*
X120834305Y-83214829D01*
X120975722Y-83214829D01*
X121138326Y-83214829D01*
X121266737Y-83214829D01*
X121334845Y-83211753D01*
X121381165Y-83203960D01*
X121407279Y-83193178D01*
X121431373Y-83174287D01*
X121453888Y-83145647D01*
X121469210Y-83112436D01*
X121479880Y-83064373D01*
X121483991Y-82996720D01*
X121477997Y-82925751D01*
X121462175Y-82874711D01*
X121438562Y-82838633D01*
X121414540Y-82819196D01*
X121379629Y-82803656D01*
X121330412Y-82792951D01*
X121262646Y-82788869D01*
X121138326Y-82788869D01*
X121138326Y-83214829D01*
X120975722Y-83214829D01*
X120975722Y-82753698D01*
X121138326Y-82753698D01*
X121263989Y-82753698D01*
X121330709Y-82749472D01*
X121376846Y-82738609D01*
X121407669Y-82723159D01*
X121427266Y-82704056D01*
X121445461Y-82668929D01*
X121457996Y-82618422D01*
X121462803Y-82547557D01*
X121459590Y-82491679D01*
X121451307Y-82452486D01*
X121439539Y-82425863D01*
X121412437Y-82394588D01*
X121380493Y-82379274D01*
X121340849Y-82373197D01*
X121278339Y-82370725D01*
X121138326Y-82370725D01*
X121138326Y-82753698D01*
X120975722Y-82753698D01*
X120975722Y-82370725D01*
X120834305Y-82370725D01*
X120834305Y-82335554D01*
X121307709Y-82335554D01*
X121382568Y-82337716D01*
G37*
G36*
X121999160Y-82749790D02*
G01*
X122190403Y-83123054D01*
X122357098Y-82749790D01*
X122238274Y-82749790D01*
X122238274Y-82714619D01*
X122480075Y-82714619D01*
X122480075Y-82749790D01*
X122389216Y-82749790D01*
X122113893Y-83373037D01*
X122054129Y-83495664D01*
X122013143Y-83560127D01*
X121982616Y-83590455D01*
X121949476Y-83607681D01*
X121912393Y-83613433D01*
X121879028Y-83607308D01*
X121855362Y-83590047D01*
X121840177Y-83565082D01*
X121835212Y-83537595D01*
X121839689Y-83512718D01*
X121852615Y-83493571D01*
X121871729Y-83480866D01*
X121893953Y-83476657D01*
X121914509Y-83480101D01*
X121931495Y-83490202D01*
X121945854Y-83507920D01*
X121965048Y-83533542D01*
X121976629Y-83539183D01*
X121993628Y-83532503D01*
X122016196Y-83505661D01*
X122039108Y-83463829D01*
X122080432Y-83375113D01*
X122124823Y-83274668D01*
X121854996Y-82749790D01*
X121773724Y-82749790D01*
X121773724Y-82714619D01*
X122102292Y-82714619D01*
X122102292Y-82749790D01*
X121999160Y-82749790D01*
G37*
G36*
X122606348Y-82784289D02*
G01*
X122612547Y-82751952D01*
X122631261Y-82724267D01*
X122658773Y-82705274D01*
X122691039Y-82698988D01*
X122724566Y-82705328D01*
X122752527Y-82724267D01*
X122771528Y-82751981D01*
X122777807Y-82784289D01*
X122771509Y-82817239D01*
X122752527Y-82845350D01*
X122724542Y-82864527D01*
X122691039Y-82870935D01*
X122658796Y-82864583D01*
X122631261Y-82845350D01*
X122612566Y-82817267D01*
X122606348Y-82784289D01*
G37*
G36*
X122606348Y-83178986D02*
G01*
X122612547Y-83146649D01*
X122631261Y-83118963D01*
X122658773Y-83099970D01*
X122691039Y-83093684D01*
X122724595Y-83099944D01*
X122752527Y-83118597D01*
X122771487Y-83146152D01*
X122777807Y-83178986D01*
X122771509Y-83211935D01*
X122752527Y-83240047D01*
X122724542Y-83259224D01*
X122691039Y-83265631D01*
X122658796Y-83259279D01*
X122631261Y-83240047D01*
X122612566Y-83211963D01*
X122606348Y-83178986D01*
G37*
G36*
X123814830Y-82340502D02*
G01*
X123896017Y-82354411D01*
X123965254Y-82376160D01*
X124012596Y-82400263D01*
X124056563Y-82433947D01*
X124097578Y-82478331D01*
X124135736Y-82535040D01*
X124165673Y-82595542D01*
X124186925Y-82658141D01*
X124199735Y-82723344D01*
X124204063Y-82791739D01*
X124199205Y-82864255D01*
X124184974Y-82931544D01*
X124161595Y-82994438D01*
X124128897Y-83053628D01*
X124087662Y-83109241D01*
X124045167Y-83152766D01*
X124001299Y-83185779D01*
X123955729Y-83209455D01*
X123889167Y-83231119D01*
X123810292Y-83245030D01*
X123716981Y-83250000D01*
X123287297Y-83250000D01*
X123287297Y-83214829D01*
X123430057Y-83214829D01*
X123592662Y-83214829D01*
X123711547Y-83214829D01*
X123800740Y-83210082D01*
X123864199Y-83197793D01*
X123900801Y-83182274D01*
X123933162Y-83157919D01*
X123961896Y-83123543D01*
X123984016Y-83083845D01*
X124001611Y-83035961D01*
X124014164Y-82978463D01*
X124024006Y-82883825D01*
X124027841Y-82748813D01*
X124021930Y-82634910D01*
X124006519Y-82552612D01*
X123984427Y-82494740D01*
X123951052Y-82443088D01*
X123915790Y-82409743D01*
X123878182Y-82390814D01*
X123810399Y-82376332D01*
X123714295Y-82370725D01*
X123592662Y-82370725D01*
X123592662Y-83214829D01*
X123430057Y-83214829D01*
X123430057Y-82370725D01*
X123287297Y-82370725D01*
X123287297Y-82335554D01*
X123719729Y-82335554D01*
X123814830Y-82340502D01*
G37*
G36*
X124699924Y-82705866D02*
G01*
X124743104Y-82713509D01*
X124772416Y-82724267D01*
X124807898Y-82749424D01*
X124824684Y-82777206D01*
X124831728Y-82812148D01*
X124834576Y-82866660D01*
X124834576Y-83119879D01*
X124837202Y-83170365D01*
X124842391Y-83189366D01*
X124852344Y-83199636D01*
X124866693Y-83203105D01*
X124881273Y-83199616D01*
X124896907Y-83187837D01*
X124914504Y-83164026D01*
X124930929Y-83164026D01*
X124916138Y-83210192D01*
X124892586Y-83240599D01*
X124859873Y-83258973D01*
X124814792Y-83265631D01*
X124772124Y-83258786D01*
X124740363Y-83239535D01*
X124716755Y-83206815D01*
X124701402Y-83155966D01*
X124657055Y-83206451D01*
X124611670Y-83239929D01*
X124564510Y-83259219D01*
X124514251Y-83265631D01*
X124468335Y-83260967D01*
X124431143Y-83247903D01*
X124400800Y-83226980D01*
X124377102Y-83198971D01*
X124363213Y-83167777D01*
X124358485Y-83132213D01*
X124361665Y-83108278D01*
X124494406Y-83108278D01*
X124500885Y-83149486D01*
X124518647Y-83178253D01*
X124545047Y-83197050D01*
X124574335Y-83203105D01*
X124612485Y-83196530D01*
X124647058Y-83176543D01*
X124675190Y-83148615D01*
X124690472Y-83123115D01*
X124698308Y-83093500D01*
X124701402Y-83049110D01*
X124701402Y-82976448D01*
X124616388Y-82984288D01*
X124564259Y-82997625D01*
X124534706Y-83013817D01*
X124512742Y-83038140D01*
X124499238Y-83068950D01*
X124494406Y-83108278D01*
X124361665Y-83108278D01*
X124364051Y-83090314D01*
X124380287Y-83054259D01*
X124407912Y-83022492D01*
X124449392Y-82994418D01*
X124508633Y-82970482D01*
X124590658Y-82952059D01*
X124701402Y-82941277D01*
X124701402Y-82873316D01*
X124696885Y-82797291D01*
X124687358Y-82764078D01*
X124675187Y-82751136D01*
X124652024Y-82741883D01*
X124611887Y-82738066D01*
X124552803Y-82742206D01*
X124520887Y-82751827D01*
X124505805Y-82764169D01*
X124501245Y-82779160D01*
X124503343Y-82791047D01*
X124510465Y-82805294D01*
X124517307Y-82820509D01*
X124519685Y-82838756D01*
X124514884Y-82863116D01*
X124501245Y-82880155D01*
X124481596Y-82890826D01*
X124459541Y-82894382D01*
X124432333Y-82889462D01*
X124413073Y-82875636D01*
X124400814Y-82855310D01*
X124396709Y-82831673D01*
X124403180Y-82798724D01*
X124423237Y-82768618D01*
X124460579Y-82740020D01*
X124504815Y-82720631D01*
X124562947Y-82707699D01*
X124638510Y-82702896D01*
X124699924Y-82705866D01*
G37*
G36*
X125120095Y-83214829D02*
G01*
X125120095Y-82749790D01*
X125023803Y-82749790D01*
X125023803Y-82714619D01*
X125083948Y-82714619D01*
X125185051Y-82711293D01*
X125253330Y-82702896D01*
X125253330Y-82836435D01*
X125256078Y-82836435D01*
X125282161Y-82786713D01*
X125313809Y-82750065D01*
X125351244Y-82724311D01*
X125395587Y-82708472D01*
X125448724Y-82702896D01*
X125506770Y-82709299D01*
X125549617Y-82726641D01*
X125581061Y-82753811D01*
X125603063Y-82792047D01*
X125615359Y-82844678D01*
X125618107Y-82844678D01*
X125646636Y-82791219D01*
X125680104Y-82752187D01*
X125718629Y-82725085D01*
X125763194Y-82708629D01*
X125815516Y-82702896D01*
X125855502Y-82706542D01*
X125889624Y-82716934D01*
X125919014Y-82733731D01*
X125944388Y-82756300D01*
X125961273Y-82779874D01*
X125970976Y-82804867D01*
X125977871Y-82851811D01*
X125980868Y-82938346D01*
X125980868Y-83214829D01*
X126075818Y-83214829D01*
X126075818Y-83250000D01*
X125758119Y-83250000D01*
X125758119Y-83214829D01*
X125847634Y-83214829D01*
X125847634Y-82877896D01*
X125844757Y-82804286D01*
X125838414Y-82768108D01*
X125829227Y-82751848D01*
X125813593Y-82741854D01*
X125788893Y-82738066D01*
X125754342Y-82744059D01*
X125716976Y-82763559D01*
X125675137Y-82800593D01*
X125652610Y-82832892D01*
X125634314Y-82879921D01*
X125621616Y-82946308D01*
X125616763Y-83037630D01*
X125616763Y-83214829D01*
X125704874Y-83214829D01*
X125704874Y-83250000D01*
X125395418Y-83250000D01*
X125395418Y-83214829D01*
X125484200Y-83214829D01*
X125484200Y-82950863D01*
X125480199Y-82811618D01*
X125472904Y-82767437D01*
X125462560Y-82751680D01*
X125445598Y-82741816D01*
X125419293Y-82738066D01*
X125382861Y-82743553D01*
X125349457Y-82760101D01*
X125317871Y-82789296D01*
X125281657Y-82841772D01*
X125263893Y-82888948D01*
X125256494Y-82944519D01*
X125253330Y-83043004D01*
X125253330Y-83214829D01*
X125341441Y-83214829D01*
X125341441Y-83250000D01*
X125023803Y-83250000D01*
X125023803Y-83214829D01*
X125120095Y-83214829D01*
G37*
G36*
X126513091Y-82704079D02*
G01*
X126564691Y-82718898D01*
X126611672Y-82743316D01*
X126654856Y-82777939D01*
X126690625Y-82819971D01*
X126715854Y-82866254D01*
X126731201Y-82917685D01*
X126736495Y-82975532D01*
X126731065Y-83034586D01*
X126715228Y-83087814D01*
X126689043Y-83136417D01*
X126651742Y-83181245D01*
X126606718Y-83218682D01*
X126558917Y-83244726D01*
X126507582Y-83260327D01*
X126451646Y-83265631D01*
X126396620Y-83260443D01*
X126346242Y-83245201D01*
X126299458Y-83219793D01*
X126255519Y-83183321D01*
X126219242Y-83139587D01*
X126193708Y-83091913D01*
X126178225Y-83039442D01*
X126173026Y-82982309D01*
X126326594Y-82982309D01*
X126329556Y-83095130D01*
X126335814Y-83145341D01*
X126350659Y-83181156D01*
X126376114Y-83207868D01*
X126410193Y-83224514D01*
X126454333Y-83230460D01*
X126499134Y-83224426D01*
X126533895Y-83207501D01*
X126559679Y-83180318D01*
X126574195Y-83143632D01*
X126580017Y-83092708D01*
X126582744Y-82980966D01*
X126579991Y-82868819D01*
X126574195Y-82819338D01*
X126560186Y-82783887D01*
X126535910Y-82757117D01*
X126502392Y-82740394D01*
X126454333Y-82734159D01*
X126408359Y-82740400D01*
X126373367Y-82757789D01*
X126347700Y-82785288D01*
X126334105Y-82820682D01*
X126329012Y-82870165D01*
X126326594Y-82982309D01*
X126173026Y-82982309D01*
X126172904Y-82980966D01*
X126178108Y-82923843D01*
X126193295Y-82872236D01*
X126218412Y-82825011D01*
X126254176Y-82781359D01*
X126297390Y-82745243D01*
X126344740Y-82719782D01*
X126397108Y-82704314D01*
X126455737Y-82698988D01*
X126513091Y-82704079D01*
G37*
G36*
X127414085Y-83214829D02*
G01*
X127506348Y-83214829D01*
X127506348Y-83250000D01*
X127429839Y-83250000D01*
X127356503Y-83251985D01*
X127276821Y-83258182D01*
X127276821Y-83145830D01*
X127274073Y-83145830D01*
X127248284Y-83190786D01*
X127218403Y-83223784D01*
X127184255Y-83246782D01*
X127144993Y-83260765D01*
X127099195Y-83265631D01*
X127053283Y-83260509D01*
X127010290Y-83245220D01*
X126969207Y-83219115D01*
X126929385Y-83180573D01*
X126896843Y-83135910D01*
X126874146Y-83089328D01*
X126860578Y-83040210D01*
X126858008Y-83010825D01*
X127008337Y-83010825D01*
X127012186Y-83109569D01*
X127021170Y-83165167D01*
X127032212Y-83192847D01*
X127050927Y-83213364D01*
X127075962Y-83225921D01*
X127109453Y-83230460D01*
X127146262Y-83226136D01*
X127179650Y-83213363D01*
X127210570Y-83191687D01*
X127247217Y-83149493D01*
X127267906Y-83103271D01*
X127277488Y-83046331D01*
X127281584Y-82945551D01*
X127276072Y-82878213D01*
X127261194Y-82827065D01*
X127238536Y-82788503D01*
X127206504Y-82758466D01*
X127167826Y-82740463D01*
X127120383Y-82734159D01*
X127084202Y-82738155D01*
X127058112Y-82748878D01*
X127039512Y-82765544D01*
X127027083Y-82788930D01*
X127014346Y-82857562D01*
X127008337Y-83010825D01*
X126858008Y-83010825D01*
X126855990Y-82987744D01*
X126860899Y-82931566D01*
X126875328Y-82879764D01*
X126899316Y-82831394D01*
X126933538Y-82785755D01*
X126975345Y-82746795D01*
X127019207Y-82720111D01*
X127065830Y-82704320D01*
X127116292Y-82698988D01*
X127166823Y-82705410D01*
X127208796Y-82723824D01*
X127244258Y-82754509D01*
X127274073Y-82799738D01*
X127276821Y-82799738D01*
X127276821Y-82370725D01*
X127152501Y-82370725D01*
X127152501Y-82335554D01*
X127276821Y-82335554D01*
X127345469Y-82331662D01*
X127414085Y-82319923D01*
X127414085Y-83214829D01*
G37*
G36*
X127952262Y-82705866D02*
G01*
X127995441Y-82713509D01*
X128024754Y-82724267D01*
X128060236Y-82749424D01*
X128077021Y-82777206D01*
X128084065Y-82812148D01*
X128086913Y-82866660D01*
X128086913Y-83119879D01*
X128089540Y-83170365D01*
X128094729Y-83189366D01*
X128104682Y-83199636D01*
X128119031Y-83203105D01*
X128133610Y-83199616D01*
X128149245Y-83187837D01*
X128166842Y-83164026D01*
X128183267Y-83164026D01*
X128168476Y-83210192D01*
X128144924Y-83240599D01*
X128112211Y-83258973D01*
X128067130Y-83265631D01*
X128024462Y-83258786D01*
X127992701Y-83239535D01*
X127969093Y-83206815D01*
X127953740Y-83155966D01*
X127909392Y-83206451D01*
X127864008Y-83239929D01*
X127816848Y-83259219D01*
X127766589Y-83265631D01*
X127720673Y-83260967D01*
X127683481Y-83247903D01*
X127653138Y-83226980D01*
X127629440Y-83198971D01*
X127615551Y-83167777D01*
X127610823Y-83132213D01*
X127614003Y-83108278D01*
X127746744Y-83108278D01*
X127753223Y-83149486D01*
X127770985Y-83178253D01*
X127797385Y-83197050D01*
X127826673Y-83203105D01*
X127864823Y-83196530D01*
X127899396Y-83176543D01*
X127927527Y-83148615D01*
X127942810Y-83123115D01*
X127950646Y-83093500D01*
X127953740Y-83049110D01*
X127953740Y-82976448D01*
X127868726Y-82984288D01*
X127816597Y-82997625D01*
X127787044Y-83013817D01*
X127765080Y-83038140D01*
X127751576Y-83068950D01*
X127746744Y-83108278D01*
X127614003Y-83108278D01*
X127616389Y-83090314D01*
X127632625Y-83054259D01*
X127660250Y-83022492D01*
X127701730Y-82994418D01*
X127760970Y-82970482D01*
X127842995Y-82952059D01*
X127953740Y-82941277D01*
X127953740Y-82873316D01*
X127949223Y-82797291D01*
X127939696Y-82764078D01*
X127927525Y-82751136D01*
X127904362Y-82741883D01*
X127864225Y-82738066D01*
X127805141Y-82742206D01*
X127773225Y-82751827D01*
X127758143Y-82764169D01*
X127753583Y-82779160D01*
X127755680Y-82791047D01*
X127762803Y-82805294D01*
X127769645Y-82820509D01*
X127772023Y-82838756D01*
X127767222Y-82863116D01*
X127753583Y-82880155D01*
X127733934Y-82890826D01*
X127711878Y-82894382D01*
X127684671Y-82889462D01*
X127665411Y-82875636D01*
X127653152Y-82855310D01*
X127649047Y-82831673D01*
X127655518Y-82798724D01*
X127675574Y-82768618D01*
X127712916Y-82740020D01*
X127757153Y-82720631D01*
X127815285Y-82707699D01*
X127890847Y-82702896D01*
X127952262Y-82705866D01*
G37*
G36*
X128362908Y-83214829D02*
G01*
X128362908Y-82749790D01*
X128252205Y-82749790D01*
X128252205Y-82714619D01*
X128364251Y-82714619D01*
X128445220Y-82711205D01*
X128495409Y-82702896D01*
X128495409Y-82832039D01*
X128498157Y-82832039D01*
X128528158Y-82770403D01*
X128561428Y-82731653D01*
X128598009Y-82710064D01*
X128639574Y-82702896D01*
X128677149Y-82709439D01*
X128705458Y-82728114D01*
X128724170Y-82755958D01*
X128730432Y-82789235D01*
X128725203Y-82819704D01*
X128710282Y-82842786D01*
X128687529Y-82857883D01*
X128658014Y-82863119D01*
X128631413Y-82859060D01*
X128614053Y-82848240D01*
X128603326Y-82830551D01*
X128599274Y-82803218D01*
X128601960Y-82773237D01*
X128598267Y-82761354D01*
X128587611Y-82757545D01*
X128574715Y-82761879D01*
X128556519Y-82779013D01*
X128530214Y-82818483D01*
X128512470Y-82860789D01*
X128500138Y-82921042D01*
X128495409Y-83004658D01*
X128495409Y-83214829D01*
X128608799Y-83214829D01*
X128608799Y-83250000D01*
X128252205Y-83250000D01*
X128252205Y-83214829D01*
X128362908Y-83214829D01*
G37*
G36*
X129708318Y-82337716D02*
G01*
X129764617Y-82343431D01*
X129816308Y-82357247D01*
X129867077Y-82383975D01*
X129909867Y-82421130D01*
X129937786Y-82464820D01*
X129954224Y-82512774D01*
X129959340Y-82555861D01*
X129953208Y-82604086D01*
X129935307Y-82645995D01*
X129904990Y-82683236D01*
X129859867Y-82716543D01*
X129796082Y-82745641D01*
X129708625Y-82769330D01*
X129708625Y-82772749D01*
X129806976Y-82795621D01*
X129878708Y-82825877D01*
X129929569Y-82861924D01*
X129963926Y-82903373D01*
X129984385Y-82951132D01*
X129991458Y-83007283D01*
X129985474Y-83053594D01*
X129966179Y-83105102D01*
X129946529Y-83137151D01*
X129919966Y-83166757D01*
X129885579Y-83194129D01*
X129828714Y-83224936D01*
X129772494Y-83240840D01*
X129711103Y-83247466D01*
X129627353Y-83250000D01*
X129160055Y-83250000D01*
X129160055Y-83214829D01*
X129301472Y-83214829D01*
X129464077Y-83214829D01*
X129592487Y-83214829D01*
X129660595Y-83211753D01*
X129706915Y-83203960D01*
X129733029Y-83193178D01*
X129757123Y-83174287D01*
X129779638Y-83145647D01*
X129794960Y-83112436D01*
X129805630Y-83064373D01*
X129809741Y-82996720D01*
X129803747Y-82925751D01*
X129787926Y-82874711D01*
X129764312Y-82838633D01*
X129740290Y-82819196D01*
X129705379Y-82803656D01*
X129656162Y-82792951D01*
X129588396Y-82788869D01*
X129464077Y-82788869D01*
X129464077Y-83214829D01*
X129301472Y-83214829D01*
X129301472Y-82753698D01*
X129464077Y-82753698D01*
X129589740Y-82753698D01*
X129656459Y-82749472D01*
X129702596Y-82738609D01*
X129733419Y-82723159D01*
X129753016Y-82704056D01*
X129771211Y-82668929D01*
X129783746Y-82618422D01*
X129788553Y-82547557D01*
X129785340Y-82491679D01*
X129777057Y-82452486D01*
X129765289Y-82425863D01*
X129738187Y-82394588D01*
X129706243Y-82379274D01*
X129666599Y-82373197D01*
X129604089Y-82370725D01*
X129464077Y-82370725D01*
X129464077Y-82753698D01*
X129301472Y-82753698D01*
X129301472Y-82370725D01*
X129160055Y-82370725D01*
X129160055Y-82335554D01*
X129633459Y-82335554D01*
X129708318Y-82337716D01*
G37*
G36*
X130482618Y-82705866D02*
G01*
X130525797Y-82713509D01*
X130555109Y-82724267D01*
X130590592Y-82749424D01*
X130607377Y-82777206D01*
X130614421Y-82812148D01*
X130617269Y-82866660D01*
X130617269Y-83119879D01*
X130619895Y-83170365D01*
X130625085Y-83189366D01*
X130635038Y-83199636D01*
X130649387Y-83203105D01*
X130663966Y-83199616D01*
X130679601Y-83187837D01*
X130697198Y-83164026D01*
X130713623Y-83164026D01*
X130698832Y-83210192D01*
X130675280Y-83240599D01*
X130642567Y-83258973D01*
X130597486Y-83265631D01*
X130554818Y-83258786D01*
X130523057Y-83239535D01*
X130499449Y-83206815D01*
X130484096Y-83155966D01*
X130439748Y-83206451D01*
X130394364Y-83239929D01*
X130347204Y-83259219D01*
X130296945Y-83265631D01*
X130251029Y-83260967D01*
X130213837Y-83247903D01*
X130183494Y-83226980D01*
X130159796Y-83198971D01*
X130145907Y-83167777D01*
X130141179Y-83132213D01*
X130144359Y-83108278D01*
X130277100Y-83108278D01*
X130283579Y-83149486D01*
X130301341Y-83178253D01*
X130327741Y-83197050D01*
X130357028Y-83203105D01*
X130395179Y-83196530D01*
X130429752Y-83176543D01*
X130457883Y-83148615D01*
X130473166Y-83123115D01*
X130481002Y-83093500D01*
X130484096Y-83049110D01*
X130484096Y-82976448D01*
X130399082Y-82984288D01*
X130346952Y-82997625D01*
X130317400Y-83013817D01*
X130295436Y-83038140D01*
X130281931Y-83068950D01*
X130277100Y-83108278D01*
X130144359Y-83108278D01*
X130146745Y-83090314D01*
X130162981Y-83054259D01*
X130190606Y-83022492D01*
X130232086Y-82994418D01*
X130291326Y-82970482D01*
X130373351Y-82952059D01*
X130484096Y-82941277D01*
X130484096Y-82873316D01*
X130479579Y-82797291D01*
X130470052Y-82764078D01*
X130457881Y-82751136D01*
X130434718Y-82741883D01*
X130394581Y-82738066D01*
X130335496Y-82742206D01*
X130303581Y-82751827D01*
X130288499Y-82764169D01*
X130283939Y-82779160D01*
X130286036Y-82791047D01*
X130293159Y-82805294D01*
X130300001Y-82820509D01*
X130302379Y-82838756D01*
X130297578Y-82863116D01*
X130283939Y-82880155D01*
X130264290Y-82890826D01*
X130242234Y-82894382D01*
X130215026Y-82889462D01*
X130195767Y-82875636D01*
X130183508Y-82855310D01*
X130179403Y-82831673D01*
X130185874Y-82798724D01*
X130205930Y-82768618D01*
X130243272Y-82740020D01*
X130287509Y-82720631D01*
X130345641Y-82707699D01*
X130421203Y-82702896D01*
X130482618Y-82705866D01*
G37*
G36*
X130893264Y-83214829D02*
G01*
X130893264Y-82749790D01*
X130782561Y-82749790D01*
X130782561Y-82714619D01*
X130894607Y-82714619D01*
X130975576Y-82711205D01*
X131025765Y-82702896D01*
X131025765Y-82832039D01*
X131028513Y-82832039D01*
X131058513Y-82770403D01*
X131091784Y-82731653D01*
X131128365Y-82710064D01*
X131169930Y-82702896D01*
X131207505Y-82709439D01*
X131235814Y-82728114D01*
X131254526Y-82755958D01*
X131260788Y-82789235D01*
X131255559Y-82819704D01*
X131240638Y-82842786D01*
X131217885Y-82857883D01*
X131188370Y-82863119D01*
X131161769Y-82859060D01*
X131144409Y-82848240D01*
X131133682Y-82830551D01*
X131129630Y-82803218D01*
X131132316Y-82773237D01*
X131128623Y-82761354D01*
X131117967Y-82757545D01*
X131105071Y-82761879D01*
X131086875Y-82779013D01*
X131060570Y-82818483D01*
X131042825Y-82860789D01*
X131030494Y-82921042D01*
X131025765Y-83004658D01*
X131025765Y-83214829D01*
X131139155Y-83214829D01*
X131139155Y-83250000D01*
X130782561Y-83250000D01*
X130782561Y-83214829D01*
X130893264Y-83214829D01*
G37*
G36*
X131428827Y-83214829D02*
G01*
X131428827Y-82370725D01*
X131322215Y-82370725D01*
X131322215Y-82335554D01*
X131424675Y-82335554D01*
X131510971Y-82330943D01*
X131562001Y-82319923D01*
X131562001Y-82832344D01*
X131564748Y-82832344D01*
X131596246Y-82783155D01*
X131630674Y-82747327D01*
X131668209Y-82722675D01*
X131709578Y-82707938D01*
X131755990Y-82702896D01*
X131804751Y-82709206D01*
X131853016Y-82728602D01*
X131881138Y-82748597D01*
X131900948Y-82772892D01*
X131913466Y-82802180D01*
X131922782Y-82857234D01*
X131926777Y-82955443D01*
X131926777Y-83214829D01*
X132014949Y-83214829D01*
X132014949Y-83250000D01*
X131706165Y-83250000D01*
X131706165Y-83214829D01*
X131794275Y-83214829D01*
X131794275Y-82942559D01*
X131792399Y-82839816D01*
X131788108Y-82784961D01*
X131778716Y-82759123D01*
X131759472Y-82743863D01*
X131726620Y-82738066D01*
X131689401Y-82743628D01*
X131656485Y-82760162D01*
X131626542Y-82788991D01*
X131592501Y-82841556D01*
X131573968Y-82892794D01*
X131565617Y-82954176D01*
X131562001Y-83066268D01*
X131562001Y-83214829D01*
X131650111Y-83214829D01*
X131650111Y-83250000D01*
X131332473Y-83250000D01*
X131332473Y-83214829D01*
X131428827Y-83214829D01*
G37*
G36*
X132464893Y-82705866D02*
G01*
X132508072Y-82713509D01*
X132537384Y-82724267D01*
X132572867Y-82749424D01*
X132589652Y-82777206D01*
X132596696Y-82812148D01*
X132599544Y-82866660D01*
X132599544Y-83119879D01*
X132602170Y-83170365D01*
X132607360Y-83189366D01*
X132617313Y-83199636D01*
X132631662Y-83203105D01*
X132646241Y-83199616D01*
X132661876Y-83187837D01*
X132679473Y-83164026D01*
X132695898Y-83164026D01*
X132681107Y-83210192D01*
X132657554Y-83240599D01*
X132624842Y-83258973D01*
X132579760Y-83265631D01*
X132537092Y-83258786D01*
X132505332Y-83239535D01*
X132481723Y-83206815D01*
X132466371Y-83155966D01*
X132422023Y-83206451D01*
X132376639Y-83239929D01*
X132329479Y-83259219D01*
X132279220Y-83265631D01*
X132233304Y-83260967D01*
X132196112Y-83247903D01*
X132165769Y-83226980D01*
X132142071Y-83198971D01*
X132128182Y-83167777D01*
X132123454Y-83132213D01*
X132126633Y-83108278D01*
X132259375Y-83108278D01*
X132265854Y-83149486D01*
X132283616Y-83178253D01*
X132310016Y-83197050D01*
X132339303Y-83203105D01*
X132377454Y-83196530D01*
X132412027Y-83176543D01*
X132440158Y-83148615D01*
X132455441Y-83123115D01*
X132463277Y-83093500D01*
X132466371Y-83049110D01*
X132466371Y-82976448D01*
X132381357Y-82984288D01*
X132329227Y-82997625D01*
X132299675Y-83013817D01*
X132277711Y-83038140D01*
X132264206Y-83068950D01*
X132259375Y-83108278D01*
X132126633Y-83108278D01*
X132129019Y-83090314D01*
X132145256Y-83054259D01*
X132172881Y-83022492D01*
X132214361Y-82994418D01*
X132273601Y-82970482D01*
X132355626Y-82952059D01*
X132466371Y-82941277D01*
X132466371Y-82873316D01*
X132461854Y-82797291D01*
X132452327Y-82764078D01*
X132440156Y-82751136D01*
X132416993Y-82741883D01*
X132376856Y-82738066D01*
X132317771Y-82742206D01*
X132285855Y-82751827D01*
X132270774Y-82764169D01*
X132266214Y-82779160D01*
X132268311Y-82791047D01*
X132275434Y-82805294D01*
X132282276Y-82820509D01*
X132284654Y-82838756D01*
X132279852Y-82863116D01*
X132266214Y-82880155D01*
X132246564Y-82890826D01*
X132224509Y-82894382D01*
X132197301Y-82889462D01*
X132178042Y-82875636D01*
X132165783Y-82855310D01*
X132161678Y-82831673D01*
X132168149Y-82798724D01*
X132188205Y-82768618D01*
X132225547Y-82740020D01*
X132269784Y-82720631D01*
X132327916Y-82707699D01*
X132403478Y-82702896D01*
X132464893Y-82705866D01*
G37*
G36*
X133019642Y-82558304D02*
G01*
X133019642Y-82714619D01*
X133181575Y-82714619D01*
X133181575Y-82749790D01*
X133019642Y-82749790D01*
X133019642Y-83086357D01*
X133022739Y-83154583D01*
X133029534Y-83187657D01*
X133038966Y-83201996D01*
X133055530Y-83211229D01*
X133082473Y-83214829D01*
X133114134Y-83209532D01*
X133145671Y-83192908D01*
X133171632Y-83166048D01*
X133191772Y-83124947D01*
X133221142Y-83124947D01*
X133203364Y-83172952D01*
X133176704Y-83208862D01*
X133140673Y-83234923D01*
X133093123Y-83251667D01*
X133030572Y-83257815D01*
X132986361Y-83254588D01*
X132954579Y-83246123D01*
X132932203Y-83233696D01*
X132906633Y-83206367D01*
X132893613Y-83174162D01*
X132888500Y-83135675D01*
X132886468Y-83078297D01*
X132886468Y-82749790D01*
X132764836Y-82749790D01*
X132764836Y-82714619D01*
X132886468Y-82714619D01*
X132886468Y-82569966D01*
X132953676Y-82567040D01*
X133019642Y-82558304D01*
G37*
G36*
X133625252Y-82706239D02*
G01*
X133678096Y-82727699D01*
X133726969Y-82764323D01*
X133756552Y-82799000D01*
X133778721Y-82839880D01*
X133793542Y-82888100D01*
X133800425Y-82945184D01*
X133454760Y-82945184D01*
X133456211Y-83079385D01*
X133465258Y-83151704D01*
X133477292Y-83185336D01*
X133499139Y-83209548D01*
X133530540Y-83224795D01*
X133574989Y-83230460D01*
X133628972Y-83223949D01*
X133674044Y-83205306D01*
X133712293Y-83174417D01*
X133744713Y-83129293D01*
X133771055Y-83066329D01*
X133800425Y-83066329D01*
X133779672Y-83131316D01*
X133751061Y-83180530D01*
X133715062Y-83217027D01*
X133671183Y-83244216D01*
X133624847Y-83260238D01*
X133574989Y-83265631D01*
X133521720Y-83260555D01*
X133472715Y-83245610D01*
X133426962Y-83220625D01*
X133383747Y-83184665D01*
X133348285Y-83141690D01*
X133323144Y-83094102D01*
X133307786Y-83040963D01*
X133302475Y-82980966D01*
X133307633Y-82922668D01*
X133322610Y-82870535D01*
X133344801Y-82828009D01*
X133454760Y-82828009D01*
X133454760Y-82910013D01*
X133653574Y-82910013D01*
X133659070Y-82839122D01*
X133654509Y-82798918D01*
X133642372Y-82770637D01*
X133623568Y-82751077D01*
X133597027Y-82738733D01*
X133559968Y-82734159D01*
X133514775Y-82740921D01*
X133482787Y-82759438D01*
X133467438Y-82777897D01*
X133458070Y-82800354D01*
X133454760Y-82828009D01*
X133344801Y-82828009D01*
X133347220Y-82823373D01*
X133382037Y-82780321D01*
X133424501Y-82743975D01*
X133468948Y-82718911D01*
X133516059Y-82704019D01*
X133566807Y-82698988D01*
X133625252Y-82706239D01*
G37*
D11*
X102003333Y-73904819D02*
X101670000Y-73428628D01*
X101431905Y-73904819D02*
X101431905Y-72904819D01*
X101431905Y-72904819D02*
X101812857Y-72904819D01*
X101812857Y-72904819D02*
X101908095Y-72952438D01*
X101908095Y-72952438D02*
X101955714Y-73000057D01*
X101955714Y-73000057D02*
X102003333Y-73095295D01*
X102003333Y-73095295D02*
X102003333Y-73238152D01*
X102003333Y-73238152D02*
X101955714Y-73333390D01*
X101955714Y-73333390D02*
X101908095Y-73381009D01*
X101908095Y-73381009D02*
X101812857Y-73428628D01*
X101812857Y-73428628D02*
X101431905Y-73428628D01*
X102860476Y-73238152D02*
X102860476Y-73904819D01*
X102622381Y-72857200D02*
X102384286Y-73571485D01*
X102384286Y-73571485D02*
X103003333Y-73571485D01*
X116133333Y-74144819D02*
X115800000Y-73668628D01*
X115561905Y-74144819D02*
X115561905Y-73144819D01*
X115561905Y-73144819D02*
X115942857Y-73144819D01*
X115942857Y-73144819D02*
X116038095Y-73192438D01*
X116038095Y-73192438D02*
X116085714Y-73240057D01*
X116085714Y-73240057D02*
X116133333Y-73335295D01*
X116133333Y-73335295D02*
X116133333Y-73478152D01*
X116133333Y-73478152D02*
X116085714Y-73573390D01*
X116085714Y-73573390D02*
X116038095Y-73621009D01*
X116038095Y-73621009D02*
X115942857Y-73668628D01*
X115942857Y-73668628D02*
X115561905Y-73668628D01*
X116514286Y-73240057D02*
X116561905Y-73192438D01*
X116561905Y-73192438D02*
X116657143Y-73144819D01*
X116657143Y-73144819D02*
X116895238Y-73144819D01*
X116895238Y-73144819D02*
X116990476Y-73192438D01*
X116990476Y-73192438D02*
X117038095Y-73240057D01*
X117038095Y-73240057D02*
X117085714Y-73335295D01*
X117085714Y-73335295D02*
X117085714Y-73430533D01*
X117085714Y-73430533D02*
X117038095Y-73573390D01*
X117038095Y-73573390D02*
X116466667Y-74144819D01*
X116466667Y-74144819D02*
X117085714Y-74144819D01*
X100854819Y-65931904D02*
X101664342Y-65931904D01*
X101664342Y-65931904D02*
X101759580Y-65884285D01*
X101759580Y-65884285D02*
X101807200Y-65836666D01*
X101807200Y-65836666D02*
X101854819Y-65741428D01*
X101854819Y-65741428D02*
X101854819Y-65550952D01*
X101854819Y-65550952D02*
X101807200Y-65455714D01*
X101807200Y-65455714D02*
X101759580Y-65408095D01*
X101759580Y-65408095D02*
X101664342Y-65360476D01*
X101664342Y-65360476D02*
X100854819Y-65360476D01*
X101854819Y-64360476D02*
X101854819Y-64931904D01*
X101854819Y-64646190D02*
X100854819Y-64646190D01*
X100854819Y-64646190D02*
X100997676Y-64741428D01*
X100997676Y-64741428D02*
X101092914Y-64836666D01*
X101092914Y-64836666D02*
X101140533Y-64931904D01*
X128261905Y-53064819D02*
X128261905Y-52064819D01*
X128261905Y-52064819D02*
X128500000Y-52064819D01*
X128500000Y-52064819D02*
X128642857Y-52112438D01*
X128642857Y-52112438D02*
X128738095Y-52207676D01*
X128738095Y-52207676D02*
X128785714Y-52302914D01*
X128785714Y-52302914D02*
X128833333Y-52493390D01*
X128833333Y-52493390D02*
X128833333Y-52636247D01*
X128833333Y-52636247D02*
X128785714Y-52826723D01*
X128785714Y-52826723D02*
X128738095Y-52921961D01*
X128738095Y-52921961D02*
X128642857Y-53017200D01*
X128642857Y-53017200D02*
X128500000Y-53064819D01*
X128500000Y-53064819D02*
X128261905Y-53064819D01*
X129785714Y-53064819D02*
X129214286Y-53064819D01*
X129500000Y-53064819D02*
X129500000Y-52064819D01*
X129500000Y-52064819D02*
X129404762Y-52207676D01*
X129404762Y-52207676D02*
X129309524Y-52302914D01*
X129309524Y-52302914D02*
X129214286Y-52350533D01*
X87793571Y-53752319D02*
X87984047Y-53752319D01*
X87984047Y-53752319D02*
X88079285Y-53704700D01*
X88079285Y-53704700D02*
X88126904Y-53657080D01*
X88126904Y-53657080D02*
X88222142Y-53514223D01*
X88222142Y-53514223D02*
X88269761Y-53323747D01*
X88269761Y-53323747D02*
X88269761Y-52942795D01*
X88269761Y-52942795D02*
X88222142Y-52847557D01*
X88222142Y-52847557D02*
X88174523Y-52799938D01*
X88174523Y-52799938D02*
X88079285Y-52752319D01*
X88079285Y-52752319D02*
X87888809Y-52752319D01*
X87888809Y-52752319D02*
X87793571Y-52799938D01*
X87793571Y-52799938D02*
X87745952Y-52847557D01*
X87745952Y-52847557D02*
X87698333Y-52942795D01*
X87698333Y-52942795D02*
X87698333Y-53180890D01*
X87698333Y-53180890D02*
X87745952Y-53276128D01*
X87745952Y-53276128D02*
X87793571Y-53323747D01*
X87793571Y-53323747D02*
X87888809Y-53371366D01*
X87888809Y-53371366D02*
X88079285Y-53371366D01*
X88079285Y-53371366D02*
X88174523Y-53323747D01*
X88174523Y-53323747D02*
X88222142Y-53276128D01*
X88222142Y-53276128D02*
X88269761Y-53180890D01*
X88603095Y-53085652D02*
X88841190Y-53752319D01*
X88841190Y-53752319D02*
X89079285Y-53085652D01*
X128381905Y-65184819D02*
X128381905Y-64184819D01*
X128381905Y-64184819D02*
X128620000Y-64184819D01*
X128620000Y-64184819D02*
X128762857Y-64232438D01*
X128762857Y-64232438D02*
X128858095Y-64327676D01*
X128858095Y-64327676D02*
X128905714Y-64422914D01*
X128905714Y-64422914D02*
X128953333Y-64613390D01*
X128953333Y-64613390D02*
X128953333Y-64756247D01*
X128953333Y-64756247D02*
X128905714Y-64946723D01*
X128905714Y-64946723D02*
X128858095Y-65041961D01*
X128858095Y-65041961D02*
X128762857Y-65137200D01*
X128762857Y-65137200D02*
X128620000Y-65184819D01*
X128620000Y-65184819D02*
X128381905Y-65184819D01*
X129334286Y-64280057D02*
X129381905Y-64232438D01*
X129381905Y-64232438D02*
X129477143Y-64184819D01*
X129477143Y-64184819D02*
X129715238Y-64184819D01*
X129715238Y-64184819D02*
X129810476Y-64232438D01*
X129810476Y-64232438D02*
X129858095Y-64280057D01*
X129858095Y-64280057D02*
X129905714Y-64375295D01*
X129905714Y-64375295D02*
X129905714Y-64470533D01*
X129905714Y-64470533D02*
X129858095Y-64613390D01*
X129858095Y-64613390D02*
X129286667Y-65184819D01*
X129286667Y-65184819D02*
X129905714Y-65184819D01*
X115233333Y-55214819D02*
X114900000Y-54738628D01*
X114661905Y-55214819D02*
X114661905Y-54214819D01*
X114661905Y-54214819D02*
X115042857Y-54214819D01*
X115042857Y-54214819D02*
X115138095Y-54262438D01*
X115138095Y-54262438D02*
X115185714Y-54310057D01*
X115185714Y-54310057D02*
X115233333Y-54405295D01*
X115233333Y-54405295D02*
X115233333Y-54548152D01*
X115233333Y-54548152D02*
X115185714Y-54643390D01*
X115185714Y-54643390D02*
X115138095Y-54691009D01*
X115138095Y-54691009D02*
X115042857Y-54738628D01*
X115042857Y-54738628D02*
X114661905Y-54738628D01*
X116185714Y-55214819D02*
X115614286Y-55214819D01*
X115900000Y-55214819D02*
X115900000Y-54214819D01*
X115900000Y-54214819D02*
X115804762Y-54357676D01*
X115804762Y-54357676D02*
X115709524Y-54452914D01*
X115709524Y-54452914D02*
X115614286Y-54500533D01*
X93568221Y-66039580D02*
X93520602Y-66087200D01*
X93520602Y-66087200D02*
X93377745Y-66134819D01*
X93377745Y-66134819D02*
X93282507Y-66134819D01*
X93282507Y-66134819D02*
X93139650Y-66087200D01*
X93139650Y-66087200D02*
X93044412Y-65991961D01*
X93044412Y-65991961D02*
X92996793Y-65896723D01*
X92996793Y-65896723D02*
X92949174Y-65706247D01*
X92949174Y-65706247D02*
X92949174Y-65563390D01*
X92949174Y-65563390D02*
X92996793Y-65372914D01*
X92996793Y-65372914D02*
X93044412Y-65277676D01*
X93044412Y-65277676D02*
X93139650Y-65182438D01*
X93139650Y-65182438D02*
X93282507Y-65134819D01*
X93282507Y-65134819D02*
X93377745Y-65134819D01*
X93377745Y-65134819D02*
X93520602Y-65182438D01*
X93520602Y-65182438D02*
X93568221Y-65230057D01*
X94520602Y-66134819D02*
X93949174Y-66134819D01*
X94234888Y-66134819D02*
X94234888Y-65134819D01*
X94234888Y-65134819D02*
X94139650Y-65277676D01*
X94139650Y-65277676D02*
X94044412Y-65372914D01*
X94044412Y-65372914D02*
X93949174Y-65420533D01*
X102173333Y-55294819D02*
X101840000Y-54818628D01*
X101601905Y-55294819D02*
X101601905Y-54294819D01*
X101601905Y-54294819D02*
X101982857Y-54294819D01*
X101982857Y-54294819D02*
X102078095Y-54342438D01*
X102078095Y-54342438D02*
X102125714Y-54390057D01*
X102125714Y-54390057D02*
X102173333Y-54485295D01*
X102173333Y-54485295D02*
X102173333Y-54628152D01*
X102173333Y-54628152D02*
X102125714Y-54723390D01*
X102125714Y-54723390D02*
X102078095Y-54771009D01*
X102078095Y-54771009D02*
X101982857Y-54818628D01*
X101982857Y-54818628D02*
X101601905Y-54818628D01*
X102506667Y-54294819D02*
X103125714Y-54294819D01*
X103125714Y-54294819D02*
X102792381Y-54675771D01*
X102792381Y-54675771D02*
X102935238Y-54675771D01*
X102935238Y-54675771D02*
X103030476Y-54723390D01*
X103030476Y-54723390D02*
X103078095Y-54771009D01*
X103078095Y-54771009D02*
X103125714Y-54866247D01*
X103125714Y-54866247D02*
X103125714Y-55104342D01*
X103125714Y-55104342D02*
X103078095Y-55199580D01*
X103078095Y-55199580D02*
X103030476Y-55247200D01*
X103030476Y-55247200D02*
X102935238Y-55294819D01*
X102935238Y-55294819D02*
X102649524Y-55294819D01*
X102649524Y-55294819D02*
X102554286Y-55247200D01*
X102554286Y-55247200D02*
X102506667Y-55199580D01*
%TO.C,R4*%
D12*
X105440000Y-77190000D02*
X105440000Y-76860000D01*
X105440000Y-74450000D02*
X105440000Y-74780000D01*
X98900000Y-77190000D02*
X105440000Y-77190000D01*
X98900000Y-76860000D02*
X98900000Y-77190000D01*
X98900000Y-74780000D02*
X98900000Y-74450000D01*
X98900000Y-74450000D02*
X105440000Y-74450000D01*
%TO.C,R2*%
X113030000Y-74690000D02*
X119570000Y-74690000D01*
X113030000Y-75020000D02*
X113030000Y-74690000D01*
X113030000Y-77100000D02*
X113030000Y-77430000D01*
X113030000Y-77430000D02*
X119570000Y-77430000D01*
X119570000Y-74690000D02*
X119570000Y-75020000D01*
X119570000Y-77430000D02*
X119570000Y-77100000D01*
%TO.C,U1*%
X102400000Y-62520000D02*
X102400000Y-64170000D01*
X102400000Y-66170000D02*
X102400000Y-67820000D01*
X102400000Y-67820000D02*
X112680000Y-67820000D01*
X112680000Y-62520000D02*
X102400000Y-62520000D01*
X112680000Y-67820000D02*
X112680000Y-62520000D01*
X102400000Y-64170000D02*
G75*
G02*
X102400000Y-66170000I0J-1000000D01*
G01*
%TO.C,D1*%
X126440000Y-55025000D02*
X126440000Y-58115000D01*
X126440000Y-55025170D02*
G75*
G02*
X131990000Y-56570000I2560000J-1544830D01*
G01*
X131990000Y-56570000D02*
G75*
G02*
X126440000Y-58114830I-2990000J0D01*
G01*
X131500000Y-56570000D02*
G75*
G02*
X126500000Y-56570000I-2500000J0D01*
G01*
X126500000Y-56570000D02*
G75*
G02*
X131500000Y-56570000I2500000J0D01*
G01*
%TO.C,9v*%
X85455000Y-54297500D02*
X91275000Y-54297500D01*
X85455000Y-56017500D02*
X91275000Y-56017500D01*
X85455000Y-59117500D02*
X91275000Y-59117500D01*
X85455000Y-60117500D02*
X91275000Y-60117500D01*
X85455000Y-61037500D02*
X85455000Y-54297500D01*
X86795000Y-61037500D02*
X85455000Y-61037500D01*
X91275000Y-54297500D02*
X91275000Y-61037500D01*
X91275000Y-61037500D02*
X87395000Y-61037500D01*
X87095000Y-61037500D02*
X87535000Y-61647500D01*
X86655000Y-61647500D01*
X87095000Y-61037500D01*
G36*
X87535000Y-61647500D02*
G01*
X86655000Y-61647500D01*
X87095000Y-61037500D01*
X87535000Y-61647500D01*
G37*
%TO.C,D2*%
X126560000Y-67145000D02*
X126560000Y-70235000D01*
X126560000Y-67145170D02*
G75*
G02*
X132110000Y-68690000I2560000J-1544830D01*
G01*
X132110000Y-68690000D02*
G75*
G02*
X126560000Y-70234830I-2990000J0D01*
G01*
X131620000Y-68690000D02*
G75*
G02*
X126620000Y-68690000I-2500000J0D01*
G01*
X126620000Y-68690000D02*
G75*
G02*
X131620000Y-68690000I2500000J0D01*
G01*
%TO.C,R1*%
X112130000Y-51020000D02*
X112130000Y-51350000D01*
X112130000Y-53760000D02*
X112130000Y-53430000D01*
X118670000Y-51020000D02*
X112130000Y-51020000D01*
X118670000Y-51350000D02*
X118670000Y-51020000D01*
X118670000Y-53430000D02*
X118670000Y-53760000D01*
X118670000Y-53760000D02*
X112130000Y-53760000D01*
%TO.C,C1*%
X90930113Y-67955000D02*
X91430113Y-67955000D01*
X91180113Y-67705000D02*
X91180113Y-68205000D01*
X93734888Y-66850000D02*
X93734888Y-72010000D01*
X93774888Y-66850000D02*
X93774888Y-72010000D01*
X93814888Y-66851000D02*
X93814888Y-72009000D01*
X93854888Y-66853000D02*
X93854888Y-72007000D01*
X93894888Y-66855000D02*
X93894888Y-72005000D01*
X93934888Y-66858000D02*
X93934888Y-72002000D01*
X93974888Y-66861000D02*
X93974888Y-68390000D01*
X93974888Y-70470000D02*
X93974888Y-71999000D01*
X94014888Y-66865000D02*
X94014888Y-68390000D01*
X94014888Y-70470000D02*
X94014888Y-71995000D01*
X94054888Y-66870000D02*
X94054888Y-68390000D01*
X94054888Y-70470000D02*
X94054888Y-71990000D01*
X94094888Y-66875000D02*
X94094888Y-68390000D01*
X94094888Y-70470000D02*
X94094888Y-71985000D01*
X94134888Y-66881000D02*
X94134888Y-68390000D01*
X94134888Y-70470000D02*
X94134888Y-71979000D01*
X94174888Y-66887000D02*
X94174888Y-68390000D01*
X94174888Y-70470000D02*
X94174888Y-71973000D01*
X94214888Y-66894000D02*
X94214888Y-68390000D01*
X94214888Y-70470000D02*
X94214888Y-71966000D01*
X94254888Y-66902000D02*
X94254888Y-68390000D01*
X94254888Y-70470000D02*
X94254888Y-71958000D01*
X94294888Y-66911000D02*
X94294888Y-68390000D01*
X94294888Y-70470000D02*
X94294888Y-71949000D01*
X94334888Y-66920000D02*
X94334888Y-68390000D01*
X94334888Y-70470000D02*
X94334888Y-71940000D01*
X94374888Y-66929000D02*
X94374888Y-68390000D01*
X94374888Y-70470000D02*
X94374888Y-71931000D01*
X94414888Y-66940000D02*
X94414888Y-68390000D01*
X94414888Y-70470000D02*
X94414888Y-71920000D01*
X94454888Y-66951000D02*
X94454888Y-68390000D01*
X94454888Y-70470000D02*
X94454888Y-71909000D01*
X94494888Y-66963000D02*
X94494888Y-68390000D01*
X94494888Y-70470000D02*
X94494888Y-71897000D01*
X94534888Y-66975000D02*
X94534888Y-68390000D01*
X94534888Y-70470000D02*
X94534888Y-71885000D01*
X94574888Y-66988000D02*
X94574888Y-68390000D01*
X94574888Y-70470000D02*
X94574888Y-71872000D01*
X94614888Y-67002000D02*
X94614888Y-68390000D01*
X94614888Y-70470000D02*
X94614888Y-71858000D01*
X94654888Y-67017000D02*
X94654888Y-68390000D01*
X94654888Y-70470000D02*
X94654888Y-71843000D01*
X94694888Y-67032000D02*
X94694888Y-68390000D01*
X94694888Y-70470000D02*
X94694888Y-71828000D01*
X94734888Y-67048000D02*
X94734888Y-68390000D01*
X94734888Y-70470000D02*
X94734888Y-71812000D01*
X94774888Y-67065000D02*
X94774888Y-68390000D01*
X94774888Y-70470000D02*
X94774888Y-71795000D01*
X94814888Y-67083000D02*
X94814888Y-68390000D01*
X94814888Y-70470000D02*
X94814888Y-71777000D01*
X94854888Y-67101000D02*
X94854888Y-68390000D01*
X94854888Y-70470000D02*
X94854888Y-71759000D01*
X94894888Y-67121000D02*
X94894888Y-68390000D01*
X94894888Y-70470000D02*
X94894888Y-71739000D01*
X94934888Y-67141000D02*
X94934888Y-68390000D01*
X94934888Y-70470000D02*
X94934888Y-71719000D01*
X94974888Y-67162000D02*
X94974888Y-68390000D01*
X94974888Y-70470000D02*
X94974888Y-71698000D01*
X95014888Y-67184000D02*
X95014888Y-68390000D01*
X95014888Y-70470000D02*
X95014888Y-71676000D01*
X95054888Y-67207000D02*
X95054888Y-68390000D01*
X95054888Y-70470000D02*
X95054888Y-71653000D01*
X95094888Y-67231000D02*
X95094888Y-68390000D01*
X95094888Y-70470000D02*
X95094888Y-71629000D01*
X95134888Y-67255000D02*
X95134888Y-68390000D01*
X95134888Y-70470000D02*
X95134888Y-71605000D01*
X95174888Y-67281000D02*
X95174888Y-68390000D01*
X95174888Y-70470000D02*
X95174888Y-71579000D01*
X95214888Y-67308000D02*
X95214888Y-68390000D01*
X95214888Y-70470000D02*
X95214888Y-71552000D01*
X95254888Y-67336000D02*
X95254888Y-68390000D01*
X95254888Y-70470000D02*
X95254888Y-71524000D01*
X95294888Y-67365000D02*
X95294888Y-68390000D01*
X95294888Y-70470000D02*
X95294888Y-71495000D01*
X95334888Y-67395000D02*
X95334888Y-68390000D01*
X95334888Y-70470000D02*
X95334888Y-71465000D01*
X95374888Y-67427000D02*
X95374888Y-68390000D01*
X95374888Y-70470000D02*
X95374888Y-71433000D01*
X95414888Y-67460000D02*
X95414888Y-68390000D01*
X95414888Y-70470000D02*
X95414888Y-71400000D01*
X95454888Y-67494000D02*
X95454888Y-68390000D01*
X95454888Y-70470000D02*
X95454888Y-71366000D01*
X95494888Y-67529000D02*
X95494888Y-68390000D01*
X95494888Y-70470000D02*
X95494888Y-71331000D01*
X95534888Y-67566000D02*
X95534888Y-68390000D01*
X95534888Y-70470000D02*
X95534888Y-71294000D01*
X95574888Y-67605000D02*
X95574888Y-68390000D01*
X95574888Y-70470000D02*
X95574888Y-71255000D01*
X95614888Y-67645000D02*
X95614888Y-68390000D01*
X95614888Y-70470000D02*
X95614888Y-71215000D01*
X95654888Y-67687000D02*
X95654888Y-68390000D01*
X95654888Y-70470000D02*
X95654888Y-71173000D01*
X95694888Y-67731000D02*
X95694888Y-68390000D01*
X95694888Y-70470000D02*
X95694888Y-71129000D01*
X95734888Y-67778000D02*
X95734888Y-68390000D01*
X95734888Y-70470000D02*
X95734888Y-71082000D01*
X95774888Y-67826000D02*
X95774888Y-68390000D01*
X95774888Y-70470000D02*
X95774888Y-71034000D01*
X95814888Y-67877000D02*
X95814888Y-68390000D01*
X95814888Y-70470000D02*
X95814888Y-70983000D01*
X95854888Y-67931000D02*
X95854888Y-68390000D01*
X95854888Y-70470000D02*
X95854888Y-70929000D01*
X95894888Y-67987000D02*
X95894888Y-68390000D01*
X95894888Y-70470000D02*
X95894888Y-70873000D01*
X95934888Y-68047000D02*
X95934888Y-68390000D01*
X95934888Y-70470000D02*
X95934888Y-70813000D01*
X95974888Y-68111000D02*
X95974888Y-68390000D01*
X95974888Y-70470000D02*
X95974888Y-70749000D01*
X96014888Y-68179000D02*
X96014888Y-68390000D01*
X96014888Y-70470000D02*
X96014888Y-70681000D01*
X96054888Y-68253000D02*
X96054888Y-70607000D01*
X96094888Y-68332000D02*
X96094888Y-70528000D01*
X96134888Y-68419000D02*
X96134888Y-70441000D01*
X96174888Y-68516000D02*
X96174888Y-70344000D01*
X96214888Y-68625000D02*
X96214888Y-70235000D01*
X96254888Y-68753000D02*
X96254888Y-70107000D01*
X96294888Y-68913000D02*
X96294888Y-69947000D01*
X96334888Y-69147000D02*
X96334888Y-69713000D01*
X96354888Y-69430000D02*
G75*
G02*
X91114888Y-69430000I-2620000J0D01*
G01*
X91114888Y-69430000D02*
G75*
G02*
X96354888Y-69430000I2620000J0D01*
G01*
%TO.C,R3*%
X99070000Y-51100000D02*
X99070000Y-51430000D01*
X99070000Y-53840000D02*
X99070000Y-53510000D01*
X105610000Y-51100000D02*
X99070000Y-51100000D01*
X105610000Y-51430000D02*
X105610000Y-51100000D01*
X105610000Y-53510000D02*
X105610000Y-53840000D01*
X105610000Y-53840000D02*
X99070000Y-53840000D01*
%TD*%
M02*
