%TF.GenerationSoftware,KiCad,Pcbnew,10.0.6*%
%TF.CreationDate,2026-09-20T23:39:27+05:30*%
%TF.ProjectId,LED_Button,4c45445f-4275-4747-946f-6e2e6b696361,rev?*%
%TF.SameCoordinates,Original*%
%TF.FileFunction,Copper,L1,Top*%
%TF.FilePolarity,Positive*%
%FSLAX46Y46*%
G04 Gerber Fmt 4.6, Leading zero omitted, Abs format (unit mm)*
G04 Created by KiCad (PCBNEW 10.0.6) date 2026-09-20 23:39:27*
%MOMM*%
%LPD*%
G01*
G04 APERTURE LIST*
G04 Aperture macros list*
%AMRoundRect*
0 Rectangle with rounded corners*
0 $1 Rounding radius*
0 $2 $3 $4 $5 $6 $7 $8 $9 X,Y pos of 4 corners*
0 Add a 4 corners polygon primitive as box body*
4,1,4,$2,$3,$4,$5,$6,$7,$8,$9,$2,$3,0*
0 Add four circle primitives for the rounded corners*
1,1,$1+$1,$2,$3*
1,1,$1+$1,$4,$5*
1,1,$1+$1,$6,$7*
1,1,$1+$1,$8,$9*
0 Add four rect primitives between the rounded corners*
20,1,$1+$1,$2,$3,$4,$5,0*
20,1,$1+$1,$4,$5,$6,$7,0*
20,1,$1+$1,$6,$7,$8,$9,0*
20,1,$1+$1,$8,$9,$2,$3,0*%
G04 Aperture macros list end*
%TA.AperFunction,ComponentPad*%
%ADD10C,2.000000*%
%TD*%
%TA.AperFunction,ComponentPad*%
%ADD11C,1.600000*%
%TD*%
%TA.AperFunction,ComponentPad*%
%ADD12R,1.700000X1.700000*%
%TD*%
%TA.AperFunction,ComponentPad*%
%ADD13C,1.700000*%
%TD*%
%TA.AperFunction,ComponentPad*%
%ADD14RoundRect,0.250000X-0.750000X-0.750000X0.750000X-0.750000X0.750000X0.750000X-0.750000X0.750000X0*%
%TD*%
%TA.AperFunction,ComponentPad*%
%ADD15R,1.800000X1.800000*%
%TD*%
%TA.AperFunction,ComponentPad*%
%ADD16C,1.800000*%
%TD*%
%TA.AperFunction,Conductor*%
%ADD17C,0.200000*%
%TD*%
G04 APERTURE END LIST*
D10*
%TO.P,SW1,2,2_2*%
%TO.N,Net-(J2-Pin_2)*%
X134750000Y-70250000D03*
X128250000Y-70250000D03*
%TO.P,SW1,1,1_1*%
%TO.N,Net-(J1-Pin_1)*%
X134750000Y-65750000D03*
X128250000Y-65750000D03*
%TD*%
D11*
%TO.P,R2,1*%
%TO.N,Net-(J2-Pin_2)*%
X137380000Y-74500000D03*
%TO.P,R2,2*%
%TO.N,GND*%
X145000000Y-74500000D03*
%TD*%
%TO.P,R1,1*%
%TO.N,Net-(J1-Pin_1)*%
X157310000Y-69500000D03*
%TO.P,R1,2*%
%TO.N,Net-(D1-A)*%
X149690000Y-69500000D03*
%TD*%
D12*
%TO.P,J2,1,Pin_1_1*%
%TO.N,Net-(J1-Pin_1)*%
X153000000Y-78000000D03*
D13*
%TO.P,J2,2,Pin_2_2*%
%TO.N,Net-(J2-Pin_2)*%
X153000000Y-80540000D03*
%TO.P,J2,3,Pin_3_3*%
%TO.N,GND*%
X153000000Y-83080000D03*
%TD*%
D10*
%TO.P,J1,2,Pin_2_2*%
%TO.N,GND*%
X132540000Y-80500000D03*
D14*
%TO.P,J1,1,Pin_1_1*%
%TO.N,Net-(J1-Pin_1)*%
X130000000Y-80500000D03*
%TD*%
D15*
%TO.P,D1,1,K_1*%
%TO.N,GND*%
X141460000Y-82000000D03*
D16*
%TO.P,D1,2,A_2*%
%TO.N,Net-(D1-A)*%
X144000000Y-82000000D03*
%TD*%
%TO.N,GND*%
D17*
X141460000Y-81540000D02*
X145000000Y-78000000D01*
X141460000Y-82000000D02*
X141460000Y-81540000D01*
X145000000Y-78000000D02*
X145000000Y-74500000D01*
%TO.N,Net-(J1-Pin_1)*%
X153000000Y-78000000D02*
X153000000Y-73810000D01*
X153000000Y-73810000D02*
X157310000Y-69500000D01*
%TO.N,GND*%
X143390000Y-83930000D02*
X141460000Y-82000000D01*
X153000000Y-83080000D02*
X152150000Y-83930000D01*
X152150000Y-83930000D02*
X143390000Y-83930000D01*
%TO.N,Net-(D1-A)*%
X149690000Y-76310000D02*
X149690000Y-69500000D01*
X144000000Y-82000000D02*
X149690000Y-76310000D01*
%TO.N,GND*%
X134040000Y-82000000D02*
X132540000Y-80500000D01*
X141460000Y-82000000D02*
X134040000Y-82000000D01*
%TO.N,Net-(J2-Pin_2)*%
X137380000Y-72880000D02*
X137380000Y-74500000D01*
X134750000Y-70250000D02*
X137380000Y-72880000D01*
%TO.N,Net-(J1-Pin_1)*%
X130000000Y-67500000D02*
X130000000Y-80500000D01*
X128250000Y-65750000D02*
X130000000Y-67500000D01*
X128250000Y-65750000D02*
X134750000Y-65750000D01*
%TD*%
%TA.AperFunction,Conductor*%
%TO.N,GND*%
G36*
X161442539Y-59020185D02*
G01*
X161488294Y-59072989D01*
X161499500Y-59124500D01*
X161499500Y-88375500D01*
X161479815Y-88442539D01*
X161427011Y-88488294D01*
X161375500Y-88499500D01*
X123124500Y-88499500D01*
X123057461Y-88479815D01*
X123011706Y-88427011D01*
X123000500Y-88375500D01*
X123000500Y-86393713D01*
X123649500Y-86393713D01*
X123649500Y-86606286D01*
X123682753Y-86816239D01*
X123748444Y-87018414D01*
X123844951Y-87207820D01*
X123969890Y-87379786D01*
X124120213Y-87530109D01*
X124292179Y-87655048D01*
X124292181Y-87655049D01*
X124292184Y-87655051D01*
X124481588Y-87751557D01*
X124683757Y-87817246D01*
X124893713Y-87850500D01*
X124893714Y-87850500D01*
X125106286Y-87850500D01*
X125106287Y-87850500D01*
X125316243Y-87817246D01*
X125518412Y-87751557D01*
X125707816Y-87655051D01*
X125729789Y-87639086D01*
X125879786Y-87530109D01*
X125879788Y-87530106D01*
X125879792Y-87530104D01*
X126030104Y-87379792D01*
X126030106Y-87379788D01*
X126030109Y-87379786D01*
X126155048Y-87207820D01*
X126155047Y-87207820D01*
X126155051Y-87207816D01*
X126251557Y-87018412D01*
X126317246Y-86816243D01*
X126350500Y-86606287D01*
X126350500Y-86393713D01*
X158149500Y-86393713D01*
X158149500Y-86606286D01*
X158182753Y-86816239D01*
X158248444Y-87018414D01*
X158344951Y-87207820D01*
X158469890Y-87379786D01*
X158620213Y-87530109D01*
X158792179Y-87655048D01*
X158792181Y-87655049D01*
X158792184Y-87655051D01*
X158981588Y-87751557D01*
X159183757Y-87817246D01*
X159393713Y-87850500D01*
X159393714Y-87850500D01*
X159606286Y-87850500D01*
X159606287Y-87850500D01*
X159816243Y-87817246D01*
X160018412Y-87751557D01*
X160207816Y-87655051D01*
X160229789Y-87639086D01*
X160379786Y-87530109D01*
X160379788Y-87530106D01*
X160379792Y-87530104D01*
X160530104Y-87379792D01*
X160530106Y-87379788D01*
X160530109Y-87379786D01*
X160655048Y-87207820D01*
X160655047Y-87207820D01*
X160655051Y-87207816D01*
X160751557Y-87018412D01*
X160817246Y-86816243D01*
X160850500Y-86606287D01*
X160850500Y-86393713D01*
X160817246Y-86183757D01*
X160751557Y-85981588D01*
X160655051Y-85792184D01*
X160655049Y-85792181D01*
X160655048Y-85792179D01*
X160530109Y-85620213D01*
X160379786Y-85469890D01*
X160207820Y-85344951D01*
X160018414Y-85248444D01*
X160018413Y-85248443D01*
X160018412Y-85248443D01*
X159816243Y-85182754D01*
X159816241Y-85182753D01*
X159816240Y-85182753D01*
X159654957Y-85157208D01*
X159606287Y-85149500D01*
X159393713Y-85149500D01*
X159345042Y-85157208D01*
X159183760Y-85182753D01*
X158981585Y-85248444D01*
X158792179Y-85344951D01*
X158620213Y-85469890D01*
X158469890Y-85620213D01*
X158344951Y-85792179D01*
X158248444Y-85981585D01*
X158182753Y-86183760D01*
X158149500Y-86393713D01*
X126350500Y-86393713D01*
X126317246Y-86183757D01*
X126251557Y-85981588D01*
X126155051Y-85792184D01*
X126155049Y-85792181D01*
X126155048Y-85792179D01*
X126030109Y-85620213D01*
X125879786Y-85469890D01*
X125707820Y-85344951D01*
X125518414Y-85248444D01*
X125518413Y-85248443D01*
X125518412Y-85248443D01*
X125316243Y-85182754D01*
X125316241Y-85182753D01*
X125316240Y-85182753D01*
X125154957Y-85157208D01*
X125106287Y-85149500D01*
X124893713Y-85149500D01*
X124845042Y-85157208D01*
X124683760Y-85182753D01*
X124481585Y-85248444D01*
X124292179Y-85344951D01*
X124120213Y-85469890D01*
X123969890Y-85620213D01*
X123844951Y-85792179D01*
X123748444Y-85981585D01*
X123682753Y-86183760D01*
X123649500Y-86393713D01*
X123000500Y-86393713D01*
X123000500Y-65631902D01*
X126749500Y-65631902D01*
X126749500Y-65868097D01*
X126786446Y-66101368D01*
X126859433Y-66325996D01*
X126966657Y-66536433D01*
X127105483Y-66727510D01*
X127272490Y-66894517D01*
X127463567Y-67033343D01*
X127562991Y-67084002D01*
X127674003Y-67140566D01*
X127674005Y-67140566D01*
X127674008Y-67140568D01*
X127766292Y-67170553D01*
X127898631Y-67213553D01*
X128131903Y-67250500D01*
X128131908Y-67250500D01*
X128368097Y-67250500D01*
X128474126Y-67233705D01*
X128601368Y-67213553D01*
X128727566Y-67172547D01*
X128797404Y-67170553D01*
X128853563Y-67202798D01*
X129363181Y-67712416D01*
X129396666Y-67773739D01*
X129399500Y-67800097D01*
X129399500Y-68987077D01*
X129379815Y-69054116D01*
X129327011Y-69099871D01*
X129257853Y-69109815D01*
X129202614Y-69087395D01*
X129083400Y-69000781D01*
X129036433Y-68966657D01*
X128825996Y-68859433D01*
X128601368Y-68786446D01*
X128368097Y-68749500D01*
X128368092Y-68749500D01*
X128131908Y-68749500D01*
X128131903Y-68749500D01*
X127898631Y-68786446D01*
X127674003Y-68859433D01*
X127463566Y-68966657D01*
X127435461Y-68987077D01*
X127272490Y-69105483D01*
X127272488Y-69105485D01*
X127272487Y-69105485D01*
X127105485Y-69272487D01*
X127105485Y-69272488D01*
X127105483Y-69272490D01*
X127045862Y-69354550D01*
X126966657Y-69463566D01*
X126859433Y-69674003D01*
X126786446Y-69898631D01*
X126749500Y-70131902D01*
X126749500Y-70368097D01*
X126786446Y-70601368D01*
X126859433Y-70825996D01*
X126966657Y-71036433D01*
X127105483Y-71227510D01*
X127272490Y-71394517D01*
X127463567Y-71533343D01*
X127562991Y-71584002D01*
X127674003Y-71640566D01*
X127674005Y-71640566D01*
X127674008Y-71640568D01*
X127766292Y-71670553D01*
X127898631Y-71713553D01*
X128131903Y-71750500D01*
X128131908Y-71750500D01*
X128368097Y-71750500D01*
X128601368Y-71713553D01*
X128634468Y-71702798D01*
X128825992Y-71640568D01*
X129036433Y-71533343D01*
X129202616Y-71412602D01*
X129268420Y-71389124D01*
X129336474Y-71404949D01*
X129385169Y-71455055D01*
X129399500Y-71512922D01*
X129399500Y-78875500D01*
X129379815Y-78942539D01*
X129327011Y-78988294D01*
X129275502Y-78999500D01*
X129199999Y-78999500D01*
X129199980Y-78999501D01*
X129097203Y-79010000D01*
X129097200Y-79010001D01*
X128930668Y-79065185D01*
X128930663Y-79065187D01*
X128781342Y-79157289D01*
X128657289Y-79281342D01*
X128565187Y-79430663D01*
X128565186Y-79430666D01*
X128510001Y-79597203D01*
X128510001Y-79597204D01*
X128510000Y-79597204D01*
X128499500Y-79699983D01*
X128499500Y-81300001D01*
X128499501Y-81300018D01*
X128510000Y-81402796D01*
X128510001Y-81402799D01*
X128534190Y-81475795D01*
X128565186Y-81569334D01*
X128657288Y-81718656D01*
X128781344Y-81842712D01*
X128930666Y-81934814D01*
X129097203Y-81989999D01*
X129199991Y-82000500D01*
X130800008Y-82000499D01*
X130902797Y-81989999D01*
X131069334Y-81934814D01*
X131218656Y-81842712D01*
X131342712Y-81718656D01*
X131434814Y-81569334D01*
X131489999Y-81402797D01*
X131500500Y-81300009D01*
X131500499Y-81237305D01*
X131520183Y-81170269D01*
X131536818Y-81149626D01*
X131975387Y-80711058D01*
X131980889Y-80731591D01*
X132059881Y-80868408D01*
X132171592Y-80980119D01*
X132308409Y-81059111D01*
X132328940Y-81064612D01*
X131670893Y-81722658D01*
X131753828Y-81782914D01*
X131964197Y-81890102D01*
X132188752Y-81963065D01*
X132188751Y-81963065D01*
X132421948Y-82000000D01*
X132658052Y-82000000D01*
X132891247Y-81963065D01*
X133115802Y-81890102D01*
X133326163Y-81782918D01*
X133326169Y-81782914D01*
X133409104Y-81722658D01*
X133409105Y-81722658D01*
X132751058Y-81064612D01*
X132771591Y-81059111D01*
X132908408Y-80980119D01*
X133020119Y-80868408D01*
X133099111Y-80731591D01*
X133104612Y-80711059D01*
X133762658Y-81369105D01*
X133762658Y-81369104D01*
X133822914Y-81286169D01*
X133822918Y-81286163D01*
X133930102Y-81075802D01*
X133937786Y-81052155D01*
X140060000Y-81052155D01*
X140060000Y-81750000D01*
X141084722Y-81750000D01*
X141040667Y-81826306D01*
X141010000Y-81940756D01*
X141010000Y-82059244D01*
X141040667Y-82173694D01*
X141084722Y-82250000D01*
X140060000Y-82250000D01*
X140060000Y-82947844D01*
X140066401Y-83007372D01*
X140066403Y-83007379D01*
X140116645Y-83142086D01*
X140116649Y-83142093D01*
X140202809Y-83257187D01*
X140202812Y-83257190D01*
X140317906Y-83343350D01*
X140317913Y-83343354D01*
X140452620Y-83393596D01*
X140452627Y-83393598D01*
X140512155Y-83399999D01*
X140512172Y-83400000D01*
X141210000Y-83400000D01*
X141210000Y-82375277D01*
X141286306Y-82419333D01*
X141400756Y-82450000D01*
X141519244Y-82450000D01*
X141633694Y-82419333D01*
X141710000Y-82375277D01*
X141710000Y-83400000D01*
X142407828Y-83400000D01*
X142407844Y-83399999D01*
X142467372Y-83393598D01*
X142467379Y-83393596D01*
X142602086Y-83343354D01*
X142602093Y-83343350D01*
X142717187Y-83257190D01*
X142717190Y-83257187D01*
X142803350Y-83142093D01*
X142803354Y-83142086D01*
X142833213Y-83062031D01*
X142875084Y-83006097D01*
X142940548Y-82981680D01*
X143008821Y-82996531D01*
X143037076Y-83017683D01*
X143087636Y-83068243D01*
X143087641Y-83068247D01*
X143194421Y-83145826D01*
X143265978Y-83197815D01*
X143382501Y-83257187D01*
X143462393Y-83297895D01*
X143462396Y-83297896D01*
X143567221Y-83331955D01*
X143672049Y-83366015D01*
X143889778Y-83400500D01*
X143889779Y-83400500D01*
X144110221Y-83400500D01*
X144110222Y-83400500D01*
X144327951Y-83366015D01*
X144537606Y-83297895D01*
X144734022Y-83197815D01*
X144912365Y-83068242D01*
X145068242Y-82912365D01*
X145073510Y-82905113D01*
X145080136Y-82895995D01*
X145080137Y-82895993D01*
X145094801Y-82875808D01*
X145197815Y-82734022D01*
X145297895Y-82537606D01*
X145366015Y-82327951D01*
X145400500Y-82110222D01*
X145400500Y-81889778D01*
X145366015Y-81672049D01*
X145343188Y-81601794D01*
X145341193Y-81531953D01*
X145373436Y-81475797D01*
X149747099Y-77102135D01*
X151649500Y-77102135D01*
X151649500Y-78897870D01*
X151649501Y-78897876D01*
X151655908Y-78957483D01*
X151706202Y-79092328D01*
X151706206Y-79092335D01*
X151792452Y-79207544D01*
X151792455Y-79207547D01*
X151907664Y-79293793D01*
X151907671Y-79293797D01*
X152039082Y-79342810D01*
X152095016Y-79384681D01*
X152119433Y-79450145D01*
X152104582Y-79518418D01*
X152083431Y-79546673D01*
X151969889Y-79660215D01*
X151844951Y-79832179D01*
X151748444Y-80021585D01*
X151682753Y-80223760D01*
X151657699Y-80381947D01*
X151649500Y-80433713D01*
X151649500Y-80646287D01*
X151682754Y-80856243D01*
X151719373Y-80968945D01*
X151748444Y-81058414D01*
X151844951Y-81247820D01*
X151969890Y-81419786D01*
X152120213Y-81570109D01*
X152292179Y-81695048D01*
X152292181Y-81695049D01*
X152292184Y-81695051D01*
X152301493Y-81699794D01*
X152352290Y-81747766D01*
X152369087Y-81815587D01*
X152346552Y-81881722D01*
X152301505Y-81920760D01*
X152292446Y-81925376D01*
X152292440Y-81925380D01*
X152238282Y-81964727D01*
X152238282Y-81964728D01*
X152870591Y-82597037D01*
X152807007Y-82614075D01*
X152692993Y-82679901D01*
X152599901Y-82772993D01*
X152534075Y-82887007D01*
X152517037Y-82950591D01*
X151884728Y-82318282D01*
X151884727Y-82318282D01*
X151845380Y-82372439D01*
X151748904Y-82561782D01*
X151683242Y-82763869D01*
X151683242Y-82763872D01*
X151650000Y-82973753D01*
X151650000Y-83186246D01*
X151683242Y-83396127D01*
X151683242Y-83396130D01*
X151748904Y-83598217D01*
X151845375Y-83787550D01*
X151884728Y-83841716D01*
X152517037Y-83209408D01*
X152534075Y-83272993D01*
X152599901Y-83387007D01*
X152692993Y-83480099D01*
X152807007Y-83545925D01*
X152870590Y-83562962D01*
X152238282Y-84195269D01*
X152238282Y-84195270D01*
X152292449Y-84234624D01*
X152481782Y-84331095D01*
X152683870Y-84396757D01*
X152893754Y-84430000D01*
X153106246Y-84430000D01*
X153316127Y-84396757D01*
X153316130Y-84396757D01*
X153518217Y-84331095D01*
X153707554Y-84234622D01*
X153761716Y-84195270D01*
X153761717Y-84195270D01*
X153129408Y-83562962D01*
X153192993Y-83545925D01*
X153307007Y-83480099D01*
X153400099Y-83387007D01*
X153465925Y-83272993D01*
X153482962Y-83209408D01*
X154115270Y-83841717D01*
X154115270Y-83841716D01*
X154154622Y-83787554D01*
X154251095Y-83598217D01*
X154316757Y-83396130D01*
X154316757Y-83396127D01*
X154350000Y-83186246D01*
X154350000Y-82973753D01*
X154316757Y-82763872D01*
X154316757Y-82763869D01*
X154251095Y-82561782D01*
X154154624Y-82372449D01*
X154115270Y-82318282D01*
X154115269Y-82318282D01*
X153482962Y-82950590D01*
X153465925Y-82887007D01*
X153400099Y-82772993D01*
X153307007Y-82679901D01*
X153192993Y-82614075D01*
X153129409Y-82597037D01*
X153761716Y-81964728D01*
X153707547Y-81925373D01*
X153707547Y-81925372D01*
X153698500Y-81920763D01*
X153647706Y-81872788D01*
X153630912Y-81804966D01*
X153653451Y-81738832D01*
X153698508Y-81699793D01*
X153707816Y-81695051D01*
X153787007Y-81637515D01*
X153879786Y-81570109D01*
X153879788Y-81570106D01*
X153879792Y-81570104D01*
X154030104Y-81419792D01*
X154030106Y-81419788D01*
X154030109Y-81419786D01*
X154155048Y-81247820D01*
X154155047Y-81247820D01*
X154155051Y-81247816D01*
X154251557Y-81058412D01*
X154317246Y-80856243D01*
X154350500Y-80646287D01*
X154350500Y-80433713D01*
X154317246Y-80223757D01*
X154251557Y-80021588D01*
X154155051Y-79832184D01*
X154155049Y-79832181D01*
X154155048Y-79832179D01*
X154030109Y-79660213D01*
X153916569Y-79546673D01*
X153883084Y-79485350D01*
X153888068Y-79415658D01*
X153929940Y-79359725D01*
X153960915Y-79342810D01*
X154092331Y-79293796D01*
X154207546Y-79207546D01*
X154293796Y-79092331D01*
X154344091Y-78957483D01*
X154350500Y-78897873D01*
X154350499Y-77102128D01*
X154344091Y-77042517D01*
X154293796Y-76907669D01*
X154293795Y-76907668D01*
X154293793Y-76907664D01*
X154207547Y-76792455D01*
X154207544Y-76792452D01*
X154092335Y-76706206D01*
X154092328Y-76706202D01*
X153957482Y-76655908D01*
X153957483Y-76655908D01*
X153897883Y-76649501D01*
X153897881Y-76649500D01*
X153897873Y-76649500D01*
X153897865Y-76649500D01*
X153724500Y-76649500D01*
X153657461Y-76629815D01*
X153611706Y-76577011D01*
X153600500Y-76525500D01*
X153600500Y-74110096D01*
X153620185Y-74043057D01*
X153636814Y-74022420D01*
X156865158Y-70794075D01*
X156926479Y-70760592D01*
X156991151Y-70763825D01*
X157005466Y-70768477D01*
X157207648Y-70800500D01*
X157207649Y-70800500D01*
X157412351Y-70800500D01*
X157412352Y-70800500D01*
X157614534Y-70768477D01*
X157809219Y-70705220D01*
X157991610Y-70612287D01*
X158084590Y-70544732D01*
X158157213Y-70491971D01*
X158157215Y-70491968D01*
X158157219Y-70491966D01*
X158301966Y-70347219D01*
X158301968Y-70347215D01*
X158301971Y-70347213D01*
X158354732Y-70274590D01*
X158422287Y-70181610D01*
X158515220Y-69999219D01*
X158578477Y-69804534D01*
X158610500Y-69602352D01*
X158610500Y-69397648D01*
X158578477Y-69195466D01*
X158515220Y-69000781D01*
X158515218Y-69000778D01*
X158515218Y-69000776D01*
X158443199Y-68859433D01*
X158422287Y-68818390D01*
X158372236Y-68749500D01*
X158301971Y-68652786D01*
X158157213Y-68508028D01*
X157991613Y-68387715D01*
X157991612Y-68387714D01*
X157991610Y-68387713D01*
X157934653Y-68358691D01*
X157809223Y-68294781D01*
X157614534Y-68231522D01*
X157439995Y-68203878D01*
X157412352Y-68199500D01*
X157207648Y-68199500D01*
X157183329Y-68203351D01*
X157005465Y-68231522D01*
X156810776Y-68294781D01*
X156628386Y-68387715D01*
X156462786Y-68508028D01*
X156318028Y-68652786D01*
X156197715Y-68818386D01*
X156104781Y-69000776D01*
X156041522Y-69195465D01*
X156009500Y-69397648D01*
X156009500Y-69602351D01*
X156041522Y-69804534D01*
X156046173Y-69818848D01*
X156048165Y-69888690D01*
X156015921Y-69944842D01*
X152631286Y-73329478D01*
X152519481Y-73441282D01*
X152519475Y-73441290D01*
X152480942Y-73508033D01*
X152480942Y-73508034D01*
X152440423Y-73578215D01*
X152399499Y-73730943D01*
X152399499Y-73730945D01*
X152399499Y-73899046D01*
X152399500Y-73899059D01*
X152399500Y-76525500D01*
X152379815Y-76592539D01*
X152327011Y-76638294D01*
X152275501Y-76649500D01*
X152102130Y-76649500D01*
X152102123Y-76649501D01*
X152042516Y-76655908D01*
X151907671Y-76706202D01*
X151907664Y-76706206D01*
X151792455Y-76792452D01*
X151792452Y-76792455D01*
X151706206Y-76907664D01*
X151706202Y-76907671D01*
X151655908Y-77042517D01*
X151649501Y-77102116D01*
X151649501Y-77102123D01*
X151649500Y-77102135D01*
X149747099Y-77102135D01*
X150058713Y-76790521D01*
X150058716Y-76790520D01*
X150170520Y-76678716D01*
X150220639Y-76591904D01*
X150249577Y-76541785D01*
X150290500Y-76389057D01*
X150290500Y-76230943D01*
X150290500Y-70729601D01*
X150310185Y-70662562D01*
X150358206Y-70619116D01*
X150371610Y-70612287D01*
X150537219Y-70491966D01*
X150681966Y-70347219D01*
X150681968Y-70347215D01*
X150681971Y-70347213D01*
X150734732Y-70274590D01*
X150802287Y-70181610D01*
X150895220Y-69999219D01*
X150958477Y-69804534D01*
X150990500Y-69602352D01*
X150990500Y-69397648D01*
X150958477Y-69195466D01*
X150895220Y-69000781D01*
X150895218Y-69000778D01*
X150895218Y-69000776D01*
X150823199Y-68859433D01*
X150802287Y-68818390D01*
X150752236Y-68749500D01*
X150681971Y-68652786D01*
X150537213Y-68508028D01*
X150371613Y-68387715D01*
X150371612Y-68387714D01*
X150371610Y-68387713D01*
X150314653Y-68358691D01*
X150189223Y-68294781D01*
X149994534Y-68231522D01*
X149819995Y-68203878D01*
X149792352Y-68199500D01*
X149587648Y-68199500D01*
X149563329Y-68203351D01*
X149385465Y-68231522D01*
X149190776Y-68294781D01*
X149008386Y-68387715D01*
X148842786Y-68508028D01*
X148698028Y-68652786D01*
X148577715Y-68818386D01*
X148484781Y-69000776D01*
X148421522Y-69195465D01*
X148389500Y-69397648D01*
X148389500Y-69602351D01*
X148421522Y-69804534D01*
X148484781Y-69999223D01*
X148548691Y-70124653D01*
X148552385Y-70131902D01*
X148577715Y-70181613D01*
X148698028Y-70347213D01*
X148698034Y-70347219D01*
X148842781Y-70491966D01*
X149008390Y-70612287D01*
X149021793Y-70619116D01*
X149072589Y-70667088D01*
X149089500Y-70729601D01*
X149089500Y-76009902D01*
X149069815Y-76076941D01*
X149053181Y-76097583D01*
X144524202Y-80626561D01*
X144462879Y-80660046D01*
X144398203Y-80656811D01*
X144373584Y-80648812D01*
X144327952Y-80633985D01*
X144219086Y-80616742D01*
X144110222Y-80599500D01*
X143889778Y-80599500D01*
X143817201Y-80610995D01*
X143672047Y-80633985D01*
X143462396Y-80702103D01*
X143462393Y-80702104D01*
X143265974Y-80802187D01*
X143087641Y-80931752D01*
X143087636Y-80931756D01*
X143037075Y-80982317D01*
X142975752Y-81015801D01*
X142906060Y-81010816D01*
X142850127Y-80968945D01*
X142833213Y-80937968D01*
X142803354Y-80857913D01*
X142803350Y-80857906D01*
X142717190Y-80742812D01*
X142717187Y-80742809D01*
X142602093Y-80656649D01*
X142602086Y-80656645D01*
X142467379Y-80606403D01*
X142467372Y-80606401D01*
X142407844Y-80600000D01*
X141710000Y-80600000D01*
X141710000Y-81624722D01*
X141633694Y-81580667D01*
X141519244Y-81550000D01*
X141400756Y-81550000D01*
X141286306Y-81580667D01*
X141210000Y-81624722D01*
X141210000Y-80600000D01*
X140512155Y-80600000D01*
X140452627Y-80606401D01*
X140452620Y-80606403D01*
X140317913Y-80656645D01*
X140317906Y-80656649D01*
X140202812Y-80742809D01*
X140202809Y-80742812D01*
X140116649Y-80857906D01*
X140116645Y-80857913D01*
X140066403Y-80992620D01*
X140066401Y-80992627D01*
X140060000Y-81052155D01*
X133937786Y-81052155D01*
X133951310Y-81010533D01*
X133951310Y-81010532D01*
X134003065Y-80851245D01*
X134040000Y-80618052D01*
X134040000Y-80381947D01*
X134003065Y-80148752D01*
X133930102Y-79924197D01*
X133822914Y-79713828D01*
X133762658Y-79630894D01*
X133762658Y-79630893D01*
X133104612Y-80288940D01*
X133099111Y-80268409D01*
X133020119Y-80131592D01*
X132908408Y-80019881D01*
X132771591Y-79940889D01*
X132751059Y-79935387D01*
X133409105Y-79277340D01*
X133409104Y-79277338D01*
X133326174Y-79217087D01*
X133115802Y-79109897D01*
X132891247Y-79036934D01*
X132891248Y-79036934D01*
X132658052Y-79000000D01*
X132421948Y-79000000D01*
X132188752Y-79036934D01*
X131964197Y-79109897D01*
X131753830Y-79217084D01*
X131670894Y-79277340D01*
X132328941Y-79935387D01*
X132308409Y-79940889D01*
X132171592Y-80019881D01*
X132059881Y-80131592D01*
X131980889Y-80268409D01*
X131975387Y-80288941D01*
X131536818Y-79850372D01*
X131503333Y-79789049D01*
X131500499Y-79762691D01*
X131500499Y-79699998D01*
X131500498Y-79699981D01*
X131489999Y-79597203D01*
X131489998Y-79597200D01*
X131461068Y-79509896D01*
X131434814Y-79430666D01*
X131342712Y-79281344D01*
X131218656Y-79157288D01*
X131113343Y-79092331D01*
X131069336Y-79065187D01*
X131069331Y-79065185D01*
X131067862Y-79064698D01*
X130902797Y-79010001D01*
X130902795Y-79010000D01*
X130800016Y-78999500D01*
X130800009Y-78999500D01*
X130724500Y-78999500D01*
X130657461Y-78979815D01*
X130611706Y-78927011D01*
X130600500Y-78875500D01*
X130600500Y-70131902D01*
X133249500Y-70131902D01*
X133249500Y-70368097D01*
X133286446Y-70601368D01*
X133359433Y-70825996D01*
X133466657Y-71036433D01*
X133605483Y-71227510D01*
X133772490Y-71394517D01*
X133963567Y-71533343D01*
X134062991Y-71584002D01*
X134174003Y-71640566D01*
X134174005Y-71640566D01*
X134174008Y-71640568D01*
X134266292Y-71670553D01*
X134398631Y-71713553D01*
X134631903Y-71750500D01*
X134631908Y-71750500D01*
X134868097Y-71750500D01*
X134974126Y-71733705D01*
X135101368Y-71713553D01*
X135227566Y-71672547D01*
X135297404Y-71670553D01*
X135353563Y-71702798D01*
X136743181Y-73092416D01*
X136776666Y-73153739D01*
X136779500Y-73180097D01*
X136779500Y-73270397D01*
X136759815Y-73337436D01*
X136711800Y-73380879D01*
X136698389Y-73387712D01*
X136532786Y-73508028D01*
X136388028Y-73652786D01*
X136267715Y-73818386D01*
X136174781Y-74000776D01*
X136111522Y-74195465D01*
X136079500Y-74397648D01*
X136079500Y-74602351D01*
X136111522Y-74804534D01*
X136174781Y-74999223D01*
X136238691Y-75124653D01*
X136267585Y-75181359D01*
X136267715Y-75181613D01*
X136388028Y-75347213D01*
X136532786Y-75491971D01*
X136653226Y-75579474D01*
X136698390Y-75612287D01*
X136814607Y-75671503D01*
X136880776Y-75705218D01*
X136880778Y-75705218D01*
X136880781Y-75705220D01*
X136985137Y-75739127D01*
X137075465Y-75768477D01*
X137176557Y-75784488D01*
X137277648Y-75800500D01*
X137277649Y-75800500D01*
X137482351Y-75800500D01*
X137482352Y-75800500D01*
X137684534Y-75768477D01*
X137879219Y-75705220D01*
X138061610Y-75612287D01*
X138154590Y-75544732D01*
X138227213Y-75491971D01*
X138227215Y-75491968D01*
X138227219Y-75491966D01*
X138371966Y-75347219D01*
X138371968Y-75347215D01*
X138371971Y-75347213D01*
X138424732Y-75274590D01*
X138492287Y-75181610D01*
X138585220Y-74999219D01*
X138648477Y-74804534D01*
X138680500Y-74602352D01*
X138680500Y-74397682D01*
X143700000Y-74397682D01*
X143700000Y-74602317D01*
X143732009Y-74804417D01*
X143795244Y-74999031D01*
X143888141Y-75181350D01*
X143888147Y-75181359D01*
X143920523Y-75225921D01*
X143920524Y-75225922D01*
X144600000Y-74546446D01*
X144600000Y-74552661D01*
X144627259Y-74654394D01*
X144679920Y-74745606D01*
X144754394Y-74820080D01*
X144845606Y-74872741D01*
X144947339Y-74900000D01*
X144953553Y-74900000D01*
X144274076Y-75579474D01*
X144318650Y-75611859D01*
X144500968Y-75704755D01*
X144695582Y-75767990D01*
X144897683Y-75800000D01*
X145102317Y-75800000D01*
X145304417Y-75767990D01*
X145499031Y-75704755D01*
X145681349Y-75611859D01*
X145725921Y-75579474D01*
X145046447Y-74900000D01*
X145052661Y-74900000D01*
X145154394Y-74872741D01*
X145245606Y-74820080D01*
X145320080Y-74745606D01*
X145372741Y-74654394D01*
X145400000Y-74552661D01*
X145400000Y-74546448D01*
X146079474Y-75225922D01*
X146079474Y-75225921D01*
X146111859Y-75181349D01*
X146204755Y-74999031D01*
X146267990Y-74804417D01*
X146300000Y-74602317D01*
X146300000Y-74397682D01*
X146267990Y-74195582D01*
X146204755Y-74000968D01*
X146111859Y-73818650D01*
X146079474Y-73774077D01*
X146079474Y-73774076D01*
X145400000Y-74453551D01*
X145400000Y-74447339D01*
X145372741Y-74345606D01*
X145320080Y-74254394D01*
X145245606Y-74179920D01*
X145154394Y-74127259D01*
X145052661Y-74100000D01*
X145046446Y-74100000D01*
X145725922Y-73420524D01*
X145725921Y-73420523D01*
X145681359Y-73388147D01*
X145681350Y-73388141D01*
X145499031Y-73295244D01*
X145304417Y-73232009D01*
X145102317Y-73200000D01*
X144897683Y-73200000D01*
X144695582Y-73232009D01*
X144500968Y-73295244D01*
X144318644Y-73388143D01*
X144274077Y-73420523D01*
X144274077Y-73420524D01*
X144953554Y-74100000D01*
X144947339Y-74100000D01*
X144845606Y-74127259D01*
X144754394Y-74179920D01*
X144679920Y-74254394D01*
X144627259Y-74345606D01*
X144600000Y-74447339D01*
X144600000Y-74453553D01*
X143920524Y-73774077D01*
X143920523Y-73774077D01*
X143888143Y-73818644D01*
X143795244Y-74000968D01*
X143732009Y-74195582D01*
X143700000Y-74397682D01*
X138680500Y-74397682D01*
X138680500Y-74397648D01*
X138672257Y-74345606D01*
X138648477Y-74195465D01*
X138592249Y-74022415D01*
X138585220Y-74000781D01*
X138585218Y-74000778D01*
X138585218Y-74000776D01*
X138528295Y-73889060D01*
X138492287Y-73818390D01*
X138460092Y-73774077D01*
X138371971Y-73652786D01*
X138227213Y-73508028D01*
X138061610Y-73387712D01*
X138048200Y-73380879D01*
X137997406Y-73332903D01*
X137980500Y-73270397D01*
X137980500Y-72969060D01*
X137980501Y-72969047D01*
X137980501Y-72800944D01*
X137939576Y-72648214D01*
X137939573Y-72648209D01*
X137860524Y-72511290D01*
X137860518Y-72511282D01*
X137052034Y-71702798D01*
X136202797Y-70853562D01*
X136169313Y-70792240D01*
X136172547Y-70727566D01*
X136213553Y-70601368D01*
X136233705Y-70474126D01*
X136250500Y-70368097D01*
X136250500Y-70131902D01*
X136213553Y-69898631D01*
X136140566Y-69674003D01*
X136033342Y-69463566D01*
X135894517Y-69272490D01*
X135727510Y-69105483D01*
X135536433Y-68966657D01*
X135325996Y-68859433D01*
X135101368Y-68786446D01*
X134868097Y-68749500D01*
X134868092Y-68749500D01*
X134631908Y-68749500D01*
X134631903Y-68749500D01*
X134398631Y-68786446D01*
X134174003Y-68859433D01*
X133963566Y-68966657D01*
X133935461Y-68987077D01*
X133772490Y-69105483D01*
X133772488Y-69105485D01*
X133772487Y-69105485D01*
X133605485Y-69272487D01*
X133605485Y-69272488D01*
X133605483Y-69272490D01*
X133545862Y-69354550D01*
X133466657Y-69463566D01*
X133359433Y-69674003D01*
X133286446Y-69898631D01*
X133249500Y-70131902D01*
X130600500Y-70131902D01*
X130600500Y-67589060D01*
X130600501Y-67589047D01*
X130600501Y-67420944D01*
X130559576Y-67268214D01*
X130559573Y-67268209D01*
X130480524Y-67131290D01*
X130480518Y-67131282D01*
X129911417Y-66562181D01*
X129877932Y-66500858D01*
X129882916Y-66431166D01*
X129924788Y-66375233D01*
X129990252Y-66350816D01*
X129999098Y-66350500D01*
X133295932Y-66350500D01*
X133362971Y-66370185D01*
X133406416Y-66418203D01*
X133466657Y-66536433D01*
X133605483Y-66727510D01*
X133772490Y-66894517D01*
X133963567Y-67033343D01*
X134062991Y-67084002D01*
X134174003Y-67140566D01*
X134174005Y-67140566D01*
X134174008Y-67140568D01*
X134266292Y-67170553D01*
X134398631Y-67213553D01*
X134631903Y-67250500D01*
X134631908Y-67250500D01*
X134868097Y-67250500D01*
X135101368Y-67213553D01*
X135134468Y-67202798D01*
X135325992Y-67140568D01*
X135536433Y-67033343D01*
X135727510Y-66894517D01*
X135894517Y-66727510D01*
X136033343Y-66536433D01*
X136140568Y-66325992D01*
X136213553Y-66101368D01*
X136250500Y-65868097D01*
X136250500Y-65631902D01*
X136213553Y-65398631D01*
X136140566Y-65174003D01*
X136033342Y-64963566D01*
X135894517Y-64772490D01*
X135727510Y-64605483D01*
X135536433Y-64466657D01*
X135325996Y-64359433D01*
X135101368Y-64286446D01*
X134868097Y-64249500D01*
X134868092Y-64249500D01*
X134631908Y-64249500D01*
X134631903Y-64249500D01*
X134398631Y-64286446D01*
X134174003Y-64359433D01*
X133963566Y-64466657D01*
X133854550Y-64545862D01*
X133772490Y-64605483D01*
X133772488Y-64605485D01*
X133772487Y-64605485D01*
X133605485Y-64772487D01*
X133605485Y-64772488D01*
X133605483Y-64772490D01*
X133545862Y-64854550D01*
X133466657Y-64963566D01*
X133406417Y-65081795D01*
X133358442Y-65132591D01*
X133295932Y-65149500D01*
X129704068Y-65149500D01*
X129637029Y-65129815D01*
X129593583Y-65081795D01*
X129533342Y-64963566D01*
X129394517Y-64772490D01*
X129227510Y-64605483D01*
X129036433Y-64466657D01*
X128825996Y-64359433D01*
X128601368Y-64286446D01*
X128368097Y-64249500D01*
X128368092Y-64249500D01*
X128131908Y-64249500D01*
X128131903Y-64249500D01*
X127898631Y-64286446D01*
X127674003Y-64359433D01*
X127463566Y-64466657D01*
X127354550Y-64545862D01*
X127272490Y-64605483D01*
X127272488Y-64605485D01*
X127272487Y-64605485D01*
X127105485Y-64772487D01*
X127105485Y-64772488D01*
X127105483Y-64772490D01*
X127045862Y-64854550D01*
X126966657Y-64963566D01*
X126859433Y-65174003D01*
X126786446Y-65398631D01*
X126749500Y-65631902D01*
X123000500Y-65631902D01*
X123000500Y-60893713D01*
X123649500Y-60893713D01*
X123649500Y-61106286D01*
X123682753Y-61316239D01*
X123748444Y-61518414D01*
X123844951Y-61707820D01*
X123969890Y-61879786D01*
X124120213Y-62030109D01*
X124292179Y-62155048D01*
X124292181Y-62155049D01*
X124292184Y-62155051D01*
X124481588Y-62251557D01*
X124683757Y-62317246D01*
X124893713Y-62350500D01*
X124893714Y-62350500D01*
X125106286Y-62350500D01*
X125106287Y-62350500D01*
X125316243Y-62317246D01*
X125518412Y-62251557D01*
X125707816Y-62155051D01*
X125729789Y-62139086D01*
X125879786Y-62030109D01*
X125879788Y-62030106D01*
X125879792Y-62030104D01*
X126030104Y-61879792D01*
X126030106Y-61879788D01*
X126030109Y-61879786D01*
X126155048Y-61707820D01*
X126155047Y-61707820D01*
X126155051Y-61707816D01*
X126251557Y-61518412D01*
X126317246Y-61316243D01*
X126350500Y-61106287D01*
X126350500Y-60893713D01*
X158149500Y-60893713D01*
X158149500Y-61106286D01*
X158182753Y-61316239D01*
X158248444Y-61518414D01*
X158344951Y-61707820D01*
X158469890Y-61879786D01*
X158620213Y-62030109D01*
X158792179Y-62155048D01*
X158792181Y-62155049D01*
X158792184Y-62155051D01*
X158981588Y-62251557D01*
X159183757Y-62317246D01*
X159393713Y-62350500D01*
X159393714Y-62350500D01*
X159606286Y-62350500D01*
X159606287Y-62350500D01*
X159816243Y-62317246D01*
X160018412Y-62251557D01*
X160207816Y-62155051D01*
X160229789Y-62139086D01*
X160379786Y-62030109D01*
X160379788Y-62030106D01*
X160379792Y-62030104D01*
X160530104Y-61879792D01*
X160530106Y-61879788D01*
X160530109Y-61879786D01*
X160655048Y-61707820D01*
X160655047Y-61707820D01*
X160655051Y-61707816D01*
X160751557Y-61518412D01*
X160817246Y-61316243D01*
X160850500Y-61106287D01*
X160850500Y-60893713D01*
X160817246Y-60683757D01*
X160751557Y-60481588D01*
X160655051Y-60292184D01*
X160655049Y-60292181D01*
X160655048Y-60292179D01*
X160530109Y-60120213D01*
X160379786Y-59969890D01*
X160207820Y-59844951D01*
X160018414Y-59748444D01*
X160018413Y-59748443D01*
X160018412Y-59748443D01*
X159816243Y-59682754D01*
X159816241Y-59682753D01*
X159816240Y-59682753D01*
X159654957Y-59657208D01*
X159606287Y-59649500D01*
X159393713Y-59649500D01*
X159345042Y-59657208D01*
X159183760Y-59682753D01*
X158981585Y-59748444D01*
X158792179Y-59844951D01*
X158620213Y-59969890D01*
X158469890Y-60120213D01*
X158344951Y-60292179D01*
X158248444Y-60481585D01*
X158182753Y-60683760D01*
X158149500Y-60893713D01*
X126350500Y-60893713D01*
X126317246Y-60683757D01*
X126251557Y-60481588D01*
X126155051Y-60292184D01*
X126155049Y-60292181D01*
X126155048Y-60292179D01*
X126030109Y-60120213D01*
X125879786Y-59969890D01*
X125707820Y-59844951D01*
X125518414Y-59748444D01*
X125518413Y-59748443D01*
X125518412Y-59748443D01*
X125316243Y-59682754D01*
X125316241Y-59682753D01*
X125316240Y-59682753D01*
X125154957Y-59657208D01*
X125106287Y-59649500D01*
X124893713Y-59649500D01*
X124845042Y-59657208D01*
X124683760Y-59682753D01*
X124481585Y-59748444D01*
X124292179Y-59844951D01*
X124120213Y-59969890D01*
X123969890Y-60120213D01*
X123844951Y-60292179D01*
X123748444Y-60481585D01*
X123682753Y-60683760D01*
X123649500Y-60893713D01*
X123000500Y-60893713D01*
X123000500Y-59124500D01*
X123020185Y-59057461D01*
X123072989Y-59011706D01*
X123124500Y-59000500D01*
X161375500Y-59000500D01*
X161442539Y-59020185D01*
G37*
%TD.AperFunction*%
%TD*%
M02*
